<?xml version="1.0" encoding="utf-8"?>
<!-- Generator: Adobe Illustrator 26.0.0, SVG Export Plug-In . SVG Version: 6.00 Build 0)  -->
<svg version="1.1" id="Layer_1" xmlns="http://www.w3.org/2000/svg" xmlns:xlink="http://www.w3.org/1999/xlink" x="0px" y="0px"
	 viewBox="0 0 150 150" style="enable-background:new 0 0 150 150;" xml:space="preserve">
<style type="text/css">
	.st0{fill:none;stroke:#000000;stroke-width:9;stroke-miterlimit:10;}
	.st2{fill:url(#SVGID_1_);}
	.st3{fill:none;stroke:#000000;stroke-width:14.3071;stroke-miterlimit:10;}
	.st4{fill:none;}
	.st5{fill:url(#SVGID_00000087392099366308485040000012566992900288514993_);}
	.st6{fill:url(#SVGID_00000007398348330544198220000016313845228534253986_);}
	.st7{fill:url(#SVGID_00000008125240263051799690000010266780420637695925_);}
	.st8{fill:url(#SVGID_00000002383345610320979120000004099239340819871162_);}
	.st9{fill:url(#SVGID_00000024723999835836487740000000641087750810932138_);}
	.st10{fill:#FFCB05;}
	.st11{fill:url(#SVGID_00000134233530914610390480000011774788377182985135_);}
	.st12{fill:url(#SVGID_00000150096172431915516390000003180770308791499951_);}
	.st13{fill:url(#SVGID_00000063614549133452473600000014578897584358944436_);}
	.st14{fill:url(#SVGID_00000070084850734228050630000015292255005045461894_);}
	.st15{fill:url(#SVGID_00000039131729977069088180000017681822500132421506_);}
	.st16{fill:url(#SVGID_00000106863214569318035790000010314221383115200154_);}
	.st17{fill:url(#SVGID_00000031174851135817163650000007022630182253192840_);}
	.st18{fill:url(#SVGID_00000015314758355413135650000014582214434243088527_);}
	.st19{fill:url(#SVGID_00000012459821396414195630000000230049390876624005_);}
	.st20{fill:url(#SVGID_00000074399970245375184710000011018623821895422639_);}
	.st21{fill:url(#SVGID_00000050629468873027487280000002450859440597824672_);}
	.st22{fill:url(#SVGID_00000147917186099338636350000013545622998371710389_);}
	.st23{fill:url(#SVGID_00000051359276415110887890000001389524204581529989_);}
	.st24{fill:url(#SVGID_00000151534197484963648750000016084057335229516929_);}
	.st25{fill:#F47634;}
	.st26{fill:url(#SVGID_00000096058315345214226900000000956637980635499911_);}
	.st27{fill:url(#SVGID_00000137094453284109667460000014870740800516069808_);}
	.st28{fill:url(#SVGID_00000150784327531289488570000001709617676861959610_);}
	.st29{fill:url(#SVGID_00000047759168257348115630000010342590514467397530_);}
	.st30{fill:url(#SVGID_00000142169768364853818630000012924817389113943971_);}
	.st31{fill:url(#SVGID_00000106148486040346492720000004918953178029575053_);}
	.st32{fill:url(#SVGID_00000098910526092784945330000017222040166837669019_);}
	.st33{fill:url(#SVGID_00000051372642513578717250000001343186326764022675_);}
	.st34{fill:url(#SVGID_00000138568788484719546520000010877735375469215648_);}
	.st35{fill:#4E2D87;}
	.st36{fill:#F26722;}
	.st37{fill:url(#SVGID_00000087414839166569880210000001252315346838153143_);}
	.st38{fill:url(#SVGID_00000108270861238504981370000000540490941973846683_);}
	.st39{fill:url(#SVGID_00000003065527847643012850000008420783958793545913_);}
	.st40{fill:url(#SVGID_00000121276942488294741880000005656194265833273986_);}
	.st41{fill:url(#SVGID_00000177468792424484834930000005771771039348290177_);}
	.st42{fill:#F8BD43;}
	.st43{fill:url(#SVGID_00000042737321726354075810000015606129919525884294_);}
	.st44{fill:url(#SVGID_00000065032732688821402170000016457590913321528197_);}
	.st45{fill:url(#SVGID_00000038414939586861427210000012980376157419359139_);}
	.st46{fill:url(#SVGID_00000009554270185354140030000016188473190376619657_);}
	.st47{fill:url(#SVGID_00000155834145324341464120000010743896379988581797_);}
	.st48{fill:url(#SVGID_00000104691868125757735380000006077758368373678472_);}
	.st49{fill:url(#SVGID_00000073697118698115086270000016569826879165204916_);}
	.st50{fill:url(#SVGID_00000126301650122239717460000013019115145226072501_);}
	.st51{fill:url(#SVGID_00000050661799620535590190000000783022487973289400_);}
	.st52{fill:#ED1846;}
	.st53{fill:#2E3192;}
	.st54{fill:url(#SVGID_00000016759307284651043040000009951889928583276727_);}
	.st55{fill:url(#SVGID_00000072979100225152847670000017548469828377510571_);}
	.st56{fill:url(#SVGID_00000148651927748597118960000002666031184902769828_);}
	.st57{fill:url(#SVGID_00000150073679122113817490000000630367915525593255_);}
	.st58{fill:url(#SVGID_00000175320310515214874500000004390849750831890074_);}
	.st59{fill:#EF404A;}
	.st60{fill:url(#SVGID_00000058570015755247699730000008153118456166360728_);}
	.st61{fill:url(#SVGID_00000013181724630158625150000016403548764642155938_);}
	.st62{fill:url(#SVGID_00000071524012553195496770000002751637607000144030_);}
	.st63{fill:url(#SVGID_00000133510016350964241490000002088074910562448538_);}
	.st64{fill:url(#SVGID_00000174560054173716840710000008050801838169159867_);}
	.st65{fill:url(#SVGID_00000106126897140529931290000008795598198480751772_);}
	.st66{fill:url(#SVGID_00000131365689332672453440000002282181267658424752_);}
	.st67{fill:url(#SVGID_00000181789697599755274930000008603581271678430601_);}
	.st68{fill:url(#SVGID_00000054239735175798093740000016835031127332574340_);}
	.st69{fill:url(#SVGID_00000045578183091023907980000006151587849120910736_);}
	.st70{fill:url(#SVGID_00000104695093604195557620000009535023477262470840_);}
	.st71{fill:url(#SVGID_00000073716074593807760980000015660400640697834881_);}
	.st72{fill:url(#SVGID_00000024711483082006438240000005494447233202692240_);}
	.st73{fill:url(#SVGID_00000007407039564933551750000018157118666443067807_);}
	.st74{fill:url(#SVGID_00000045582274393011446760000008594081671177355692_);}
	.st75{fill:url(#SVGID_00000103970573610167231080000011034843450090865283_);}
	.st76{fill:url(#SVGID_00000021096830344346552540000001627429302052284032_);}
	.st77{fill:url(#SVGID_00000156570398506597926670000015057671037597650620_);}
	.st78{fill:url(#SVGID_00000140726511993143566130000001209359702886183324_);}
	.st79{fill:url(#SVGID_00000102530805547694828180000003255137442597104784_);}
	.st80{fill:url(#SVGID_00000150095042693462155710000009748349365454532251_);}
	.st81{fill:url(#SVGID_00000114032205343040383000000000032221777538413242_);}
	.st82{fill:url(#SVGID_00000100355479836982319490000014317871251760671667_);}
	.st83{fill:url(#SVGID_00000036932625136959923180000010817012602010383762_);}
	.st84{fill:url(#SVGID_00000076598208506509173110000015353206097452903307_);}
	.st85{fill:url(#SVGID_00000042702629178482535010000015301417068549234096_);}
	.st86{fill:url(#SVGID_00000017510808328627751280000011552031085680701621_);}
	.st87{fill:url(#SVGID_00000059990197871407611210000001642447696038331015_);}
	.st88{fill:url(#SVGID_00000068641397940402214510000007737475268583633315_);}
	.st89{fill:url(#SVGID_00000036930088480412401380000017943909704757715606_);}
	.st90{fill:#F6871F;}
	.st91{fill:url(#SVGID_00000065068465152636828890000015238221734036950680_);}
	.st92{fill:url(#SVGID_00000148649477653126505910000015581406243779253130_);}
	.st93{fill:url(#SVGID_00000109739966270337729210000004010925723685009803_);}
	.st94{fill:url(#SVGID_00000085220463459184811250000005932544442692670118_);}
	.st95{fill:url(#SVGID_00000180356775617078217700000015245683883248840580_);}
	.st96{fill:url(#SVGID_00000128455020554638299220000013835762981582382741_);}
	.st97{fill:url(#SVGID_00000116194276703480823040000013370745957561015201_);}
	.st98{fill:url(#SVGID_00000091737711093856433330000014978877432275443626_);}
	.st99{fill:url(#SVGID_00000017511405283761700110000007936398805447161531_);}
	.st100{font-family:'Montserrat-Bold';}
	.st101{font-size:4.977px;}
	.st102{fill:url(#SVGID_00000092444047458808132780000010583572869250911879_);}
	.st103{fill:url(#SVGID_00000157270449712695726270000004531143525950724761_);}
	.st104{fill:url(#SVGID_00000140004246311696252070000012070589568839528583_);}
	.st105{fill:url(#SVGID_00000133528098680731366630000006953187539056122759_);}
	.st106{fill:url(#SVGID_00000127032293408517705180000011410032050500376218_);}
	.st107{fill:url(#SVGID_00000012451587595771298760000003780091084870637202_);}
	.st108{fill:url(#SVGID_00000044170334347090102590000017375503245217756576_);}
	.st109{fill:url(#SVGID_00000093899912500740145020000015172586538866570628_);}
	.st110{fill:url(#SVGID_00000059294979749255243690000012955712966809874595_);}
	.st111{fill:url(#SVGID_00000121258409307601288740000005278862277450433716_);}
	.st112{fill:url(#SVGID_00000127740641545428260200000002735316045476693909_);}
	.st113{fill:url(#SVGID_00000049931227617991275630000017889891865333530260_);}
	.st114{fill:url(#SVGID_00000034080312174052499650000017693035278478883999_);}
	.st115{fill:url(#SVGID_00000011024537263975093420000005010893440026524802_);}
	.st116{fill:url(#SVGID_00000046317746994819372220000001624533842278483876_);}
	.st117{fill:url(#SVGID_00000130637340937489800810000013810706623605192092_);}
	.st118{fill:url(#SVGID_00000027595007500150151340000015714477765422975637_);}
	.st119{fill:url(#SVGID_00000011753750574579821390000003483298914536500614_);}
	.st120{fill:url(#SVGID_00000040558485721540264540000000045069865223971248_);}
	.st121{fill:#F9A01B;}
	.st122{fill:url(#SVGID_00000091723692229440169080000007046151197290894221_);}
	.st123{fill:url(#SVGID_00000036941897256858988360000005487579992787398035_);}
	.st124{fill:url(#SVGID_00000070817956853236636790000010892204584848416420_);}
	.st125{fill:url(#SVGID_00000170277951144989873440000015589388717667376268_);}
	.st126{fill:url(#SVGID_00000114782516326977805540000010854568882235349401_);}
	.st127{fill:url(#SVGID_00000036950103431766199030000009086386794815540396_);}
	.st128{fill:url(#SVGID_00000101826177898301694140000000492588078791156923_);}
	.st129{fill:url(#SVGID_00000025418609249584171980000011479215722901815196_);}
	.st130{fill:url(#SVGID_00000161616766062833314540000016130355981133661082_);}
	.st131{fill:url(#SVGID_00000071517622185873388510000016000618750770931841_);}
	.st132{fill:#587BBD;}
	.st133{fill:url(#SVGID_00000182512283203196800870000013074185968615884174_);}
	.st134{fill:#3EC0C2;}
	.st135{fill:#F0554D;}
	.st136{fill:#432E80;}
	.st137{fill:url(#SVGID_00000024717896939152801570000014415819899036364675_);}
	.st138{fill:#BC1B8D;}
	.st139{fill:#2A388F;}
	.st140{fill:url(#SVGID_00000021120912369706049520000008501726523152789174_);}
	.st141{fill:#96577F;}
	.st142{fill:#0072BC;}
	.st143{fill:#92278F;}
	.st144{fill:url(#SVGID_00000045578343056232847270000002432929629592267930_);}
	.st145{fill:#FFFFFF;}
	.st146{opacity:0.3;fill:url(#SVGID_00000176738320565051274240000015518875550015078842_);}
	.st147{fill:url(#SVGID_00000041262813173312005920000018394785937227127683_);}
	.st148{fill:url(#SVGID_00000060743931507023729380000014677239352803431836_);}
	.st149{fill:url(#SVGID_00000016066837976768850410000015448074195215673219_);}
	.st150{fill:url(#SVGID_00000003800438521671214510000016432740121157204383_);}
	.st151{fill:url(#SVGID_00000153684205561064600890000006858947692150346413_);}
	.st152{fill:url(#SVGID_00000131325409953760273360000016808865741598599820_);}
	.st153{fill:url(#SVGID_00000162318228013531503010000014125139738559981737_);}
	.st154{fill:url(#SVGID_00000171706512508893952300000017206855073647363989_);}
	.st155{fill:url(#SVGID_00000122714590827933538280000002827012915123057065_);}
	.st156{fill:url(#SVGID_00000053526967882949073760000004023879537648614551_);}
	.st157{fill:url(#SVGID_00000176044467762353493800000006583714553255152284_);}
	.st158{fill:url(#SVGID_00000004545078029475241400000001411502094903267494_);}
	.st159{fill:url(#SVGID_00000103958783330905802700000008791707582692082307_);}
	.st160{fill:url(#SVGID_00000053505403271763457970000011379071937066616242_);}
</style>
<g>
	<linearGradient id="SVGID_1_" gradientUnits="userSpaceOnUse" x1="1.4128" y1="91.822" x2="122.8062" y2="91.822">
		<stop  offset="0" style="stop-color:#0072BC"/>
		<stop  offset="0.4749" style="stop-color:#2E3192"/>
		<stop  offset="1" style="stop-color:#92278F"/>
	</linearGradient>
	<path class="st2" d="M69.99,91.38c-3.76,7.68-6.95,11.63-9.57,11.85c-1.23,0.08-2.17-0.32-2.82-1.21
		c-0.66-0.89-0.98-1.98-0.98-3.26c0-1.11,0.21-2.36,0.63-3.77c-3.3,5.49-6.25,8.24-8.87,8.24c-1.23,0-2.15-0.62-2.79-1.85
		c-0.51-0.98-0.76-2.15-0.76-3.51c0-4.04,1.77-8.2,5.32-12.49c1.14-1.4,2.62-2.58,4.44-3.54c1.82-0.96,3.59-1.43,5.32-1.43
		c2.07,0,3.72,0.68,4.94,2.03c0.3,0.34,0.44,0.68,0.44,1.01c0,0.72-0.38,0.99-1.14,0.82c-0.42-1.52-1.39-2.28-2.92-2.28
		c-1.77,0-3.87,1.25-6.27,3.76c-1.77,1.83-3.32,3.85-4.63,6.06c-1.77,2.98-2.66,5.47-2.66,7.46c0,1.45,0.53,2.17,1.58,2.17
		c2.58,0,5.89-3.9,9.95-11.71c0.84-1.61,1.48-2.65,1.9-3.12c0.68-0.72,1.48-1.04,2.41-0.95c0.21,0,0.63,0.06,1.27,0.19
		c0.63,0.13,1.1,0.15,1.39,0.06c-0.97,0.97-2.13,2.85-3.49,5.64c-1.27,2.62-2.07,4.69-2.41,6.21c-0.17,0.8-0.25,1.52-0.25,2.15
		c0,1.1,0.3,1.65,0.89,1.65c1.94,0.09,4.67-3.48,8.18-10.71c0.21-0.42,0.46-0.64,0.76-0.64c0.21,0,0.32,0.13,0.32,0.38
		C70.18,90.87,70.11,91.12,69.99,91.38z"/>
	
		<linearGradient id="SVGID_00000053521940863800868040000008249668872785946035_" gradientUnits="userSpaceOnUse" x1="1.4128" y1="83.2602" x2="122.8062" y2="83.2602">
		<stop  offset="0" style="stop-color:#0072BC"/>
		<stop  offset="0.4749" style="stop-color:#2E3192"/>
		<stop  offset="1" style="stop-color:#92278F"/>
	</linearGradient>
	<path style="fill:url(#SVGID_00000053521940863800868040000008249668872785946035_);" d="M85.58,71.82
		c-3.68,8.14-8.01,14.5-12.99,19.08c-0.42,1.02-0.87,2.42-1.33,4.2c-0.3,1.1-0.44,2.16-0.44,3.18c0,2.37,0.8,3.56,2.41,3.56
		c1.48,0,3-0.96,4.56-2.88c0.25-0.3,1.2-1.9,2.85-4.81c1.48-2.61,2.37-3.91,2.66-3.91c0.17,0,0.25,0.13,0.25,0.38
		c0,0.13-0.06,0.34-0.19,0.64c-1.69,3.69-3.02,6.2-3.99,7.52c-2.2,2.97-4.67,4.46-7.42,4.46c-2.96,0-4.44-1.54-4.44-4.63
		c0-1.35,0.55-3.98,1.65-7.87c2.2-7.79,5.41-15.26,9.63-22.41c1.99-3.34,4.01-5.01,6.08-5.01c1.48,0,2.22,0.98,2.22,2.93
		C87.1,67.7,86.59,69.57,85.58,71.82z M84.63,70.84c0.68-1.61,1.01-2.96,1.01-4.06c0-0.59-0.15-0.89-0.44-0.89
		c-0.42,0-1.12,0.7-2.09,2.09c-2.83,4.06-6.17,10.99-10.01,20.79C77.65,84.17,81.5,78.19,84.63,70.84z"/>
	
		<linearGradient id="SVGID_00000073711562590817887130000011798256679750575790_" gradientUnits="userSpaceOnUse" x1="1.4128" y1="91.8482" x2="122.8062" y2="91.8482">
		<stop  offset="0" style="stop-color:#0072BC"/>
		<stop  offset="0.4749" style="stop-color:#2E3192"/>
		<stop  offset="1" style="stop-color:#92278F"/>
	</linearGradient>
	<path style="fill:url(#SVGID_00000073711562590817887130000011798256679750575790_);" d="M99.08,91.18
		c-1.77,3.83-3.21,6.45-4.31,7.88c-2.15,2.77-4.75,4.16-7.8,4.16c-1.77,0-3.22-0.57-4.34-1.71c-1.12-1.14-1.7-2.59-1.74-4.36
		c-0.04-3.92,1.58-7.86,4.88-11.82c2.7-3.24,5.49-4.87,8.37-4.87c2.37,0,3.55,1.01,3.55,3.02c0,2.31-1.53,4.62-4.59,6.93
		c-0.85,0.63-2.11,1.25-3.79,1.86c-1.68,0.61-3.03,0.91-4.04,0.91c-0.55,1.39-0.83,2.9-0.83,4.54c0,2.73,1,4.09,2.99,4.09
		c3.86,0,7.36-3.57,10.5-10.72c0.25-0.58,0.59-0.88,1.02-0.88c0.21,0,0.32,0.13,0.32,0.38C99.27,90.7,99.2,90.88,99.08,91.18z
		 M95.97,83.26c0-0.93-0.34-1.39-1.01-1.39c-1.18,0-2.98,1.46-5.39,4.37c-1.27,1.56-2.54,3.55-3.8,5.96c2.2,0,4.45-0.95,6.75-2.85
		C94.82,87.44,95.97,85.42,95.97,83.26z"/>
	
		<linearGradient id="SVGID_00000139265800672468856030000001277284333452663461_" gradientUnits="userSpaceOnUse" x1="1.4128" y1="83.9893" x2="122.8062" y2="83.9893">
		<stop  offset="0" style="stop-color:#0072BC"/>
		<stop  offset="0.4749" style="stop-color:#2E3192"/>
		<stop  offset="1" style="stop-color:#92278F"/>
	</linearGradient>
	<path style="fill:url(#SVGID_00000139265800672468856030000001277284333452663461_);" d="M113.72,78.95c0.29,0,0.44,0.19,0.44,0.57
		c0,0.55-0.19,0.82-0.57,0.82h-3.68c-2.28,3.93-5.09,7.42-8.43,10.46c-0.34,0.89-0.82,3.04-1.46,6.46
		c-0.13,0.68-0.19,1.18-0.19,1.52c0,1.69,0.7,2.54,2.09,2.54c2.45,0,5.39-3.49,8.81-10.46c0.21-0.46,0.46-0.7,0.76-0.7
		c0.17,0,0.25,0.13,0.25,0.38c0,0.21-0.06,0.44-0.19,0.7c-2.32,4.99-4.37,8.32-6.15,10.01c-1.23,1.18-2.66,1.77-4.31,1.77
		c-1.31,0-2.39-0.43-3.23-1.3c-0.85-0.87-1.27-2.14-1.27-3.83c0-3.68,1.67-9.53,5.01-17.56h-3.3c-0.3,0-0.44-0.21-0.44-0.63
		c0-0.51,0.19-0.76,0.57-0.76h3.8c1.44-3.13,2.98-6.13,4.63-9c1.9-3.34,3.89-5.01,5.96-5.01c1.44,0,2.15,0.95,2.15,2.85
		c0,2.2-1.44,5.92-4.31,11.15H113.72z M108.46,80.34h-2.98c-0.63,1.52-1.77,4.33-3.42,8.43C104.29,86.54,106.43,83.73,108.46,80.34z
		 M112.45,72.49c0.68-1.56,1.01-2.94,1.01-4.12c0-0.68-0.15-1.01-0.44-1.01c-0.51,0-1.31,0.78-2.41,2.35
		c-0.72,1.01-2.22,4.1-4.5,9.25h3.17C110.34,77.05,111.39,74.89,112.45,72.49z"/>
	
		<linearGradient id="SVGID_00000141451263980933139470000018399803847816889260_" gradientUnits="userSpaceOnUse" x1="1.4128" y1="83.9893" x2="122.8062" y2="83.9893">
		<stop  offset="0" style="stop-color:#0072BC"/>
		<stop  offset="0.4749" style="stop-color:#2E3192"/>
		<stop  offset="1" style="stop-color:#92278F"/>
	</linearGradient>
	<path style="fill:url(#SVGID_00000141451263980933139470000018399803847816889260_);" d="M126.2,78.95c0.29,0,0.44,0.19,0.44,0.57
		c0,0.55-0.19,0.82-0.57,0.82h-3.68c-2.28,3.93-5.09,7.42-8.43,10.46c-0.34,0.89-0.82,3.04-1.46,6.46
		c-0.13,0.68-0.19,1.18-0.19,1.52c0,1.69,0.7,2.54,2.09,2.54c2.45,0,5.39-3.49,8.81-10.46c0.21-0.46,0.46-0.7,0.76-0.7
		c0.17,0,0.25,0.13,0.25,0.38c0,0.21-0.06,0.44-0.19,0.7c-2.32,4.99-4.37,8.32-6.15,10.01c-1.23,1.18-2.66,1.77-4.31,1.77
		c-1.31,0-2.39-0.43-3.23-1.3c-0.85-0.87-1.27-2.14-1.27-3.83c0-3.68,1.67-9.53,5.01-17.56h-3.3c-0.3,0-0.44-0.21-0.44-0.63
		c0-0.51,0.19-0.76,0.57-0.76h3.8c1.44-3.13,2.98-6.13,4.63-9c1.9-3.34,3.89-5.01,5.96-5.01c1.44,0,2.15,0.95,2.15,2.85
		c0,2.2-1.44,5.92-4.31,11.15H126.2z M120.94,80.34h-2.98c-0.63,1.52-1.77,4.33-3.42,8.43C116.78,86.54,118.91,83.73,120.94,80.34z
		 M124.93,72.49c0.68-1.56,1.01-2.94,1.01-4.12c0-0.68-0.15-1.01-0.44-1.01c-0.51,0-1.31,0.78-2.41,2.35
		c-0.72,1.01-2.22,4.1-4.5,9.25h3.17C122.82,77.05,123.88,74.89,124.93,72.49z"/>
	<path class="st90" d="M145.15,91.18c-1.44,3.34-2.62,5.66-3.55,6.97c-1.99,2.87-4.21,4.31-6.65,4.31c-1.44,0-2.64-0.53-3.61-1.58
		c-1.94,1.48-3.78,2.2-5.51,2.15c-2.96-0.08-4.44-1.97-4.44-5.66c0-1.86,0.44-3.83,1.33-5.91c1.14-2.63,2.73-4.96,4.75-6.99
		c2.45-2.5,4.88-3.73,7.29-3.69c2.96,0.08,4.44,1.95,4.44,5.59c0,4.79-2.22,9.28-6.65,13.48c0.55,0.98,1.56,1.46,3.04,1.46
		c1.9,0,3.82-1.54,5.77-4.63c0.63-1.01,1.65-3.06,3.04-6.15c0.13-0.21,0.27-0.32,0.44-0.32c0.29,0,0.44,0.17,0.44,0.51
		C145.28,90.82,145.24,90.97,145.15,91.18z M135.4,82.75c-1.56,0-3.22,1.06-4.98,3.19c-1.3,1.53-2.4,3.28-3.28,5.23
		c-1.47,3.19-2.21,5.74-2.21,7.66c0,1.87,0.71,2.81,2.13,2.81c1.09,0,2.28-0.55,3.57-1.65c-0.68-1.06-1.01-2.09-1.01-3.11
		c0.04-1.82,0.78-2.73,2.22-2.73c1.27,0,1.9,0.63,1.9,1.9c0,0.25,0,0.49,0,0.7c0.7-0.98,1.33-2.13,1.9-3.45
		c1.31-2.94,1.96-5.41,1.96-7.42C137.61,83.8,136.87,82.75,135.4,82.75z"/>
	<g>
		
			<linearGradient id="SVGID_00000122701453969852776920000010673827335620461206_" gradientUnits="userSpaceOnUse" x1="1.4128" y1="57.0042" x2="100.8425" y2="57.0042">
			<stop  offset="0" style="stop-color:#0072BC"/>
			<stop  offset="0.4749" style="stop-color:#2E3192"/>
			<stop  offset="1" style="stop-color:#92278F"/>
		</linearGradient>
		<path style="fill:url(#SVGID_00000122701453969852776920000010673827335620461206_);" d="M53.27,57L53.27,57
			C53.28,57,53.27,57.01,53.27,57C53.27,57.01,53.27,57,53.27,57z"/>
		
			<linearGradient id="SVGID_00000092416582728841084030000000236574733239132840_" gradientUnits="userSpaceOnUse" x1="1.4128" y1="57.0042" x2="100.8425" y2="57.0042">
			<stop  offset="0" style="stop-color:#0072BC"/>
			<stop  offset="0.4749" style="stop-color:#2E3192"/>
			<stop  offset="1" style="stop-color:#92278F"/>
		</linearGradient>
		<path style="fill:url(#SVGID_00000092416582728841084030000000236574733239132840_);" d="M53.27,57C53.27,57,53.27,57.01,53.27,57
			C53.27,57.01,53.28,57,53.27,57L53.27,57z"/>
		
			<linearGradient id="SVGID_00000096025045376398238650000004331907665651142847_" gradientUnits="userSpaceOnUse" x1="1.4128" y1="56.3995" x2="122.8062" y2="56.3995">
			<stop  offset="0" style="stop-color:#0072BC"/>
			<stop  offset="0.4749" style="stop-color:#2E3192"/>
			<stop  offset="1" style="stop-color:#92278F"/>
		</linearGradient>
		<path style="fill:url(#SVGID_00000096025045376398238650000004331907665651142847_);" d="M42.77,56.43
			c0.02-0.02,0.04-0.04,0.06-0.06c-0.01,0-0.01,0-0.02,0C42.8,56.39,42.78,56.41,42.77,56.43z"/>
		
			<linearGradient id="SVGID_00000158749078645652737750000014497701252629318847_" gradientUnits="userSpaceOnUse" x1="1.4128" y1="71.7781" x2="122.8062" y2="71.7781">
			<stop  offset="0" style="stop-color:#0072BC"/>
			<stop  offset="0.4749" style="stop-color:#2E3192"/>
			<stop  offset="1" style="stop-color:#92278F"/>
		</linearGradient>
		<path style="fill:url(#SVGID_00000158749078645652737750000014497701252629318847_);" d="M87.94,46.9
			c-0.78-1.86-2.54-3.37-4.41-4.46c-4.76-2.8-10.54-3.81-16.21-4.1c-12.27-0.64-24.62,1.84-36.1,6.07
			c-7.55,2.78-14.93,6.43-20.52,11.91c-2.73,2.68-5.03,5.87-5.76,9.46c-0.73,3.59,0.38,7.62,3.46,9.87
			c5.87,4.28,14.28,0.82,19.78-2.46c3.22-1.92,6.26-4.23,8.26-7.24c0.43-0.64,0.82-1.39,0.61-2.11c-2.47,2.1-4.21,4.76-6.78,6.79
			c-2.66,2.11-5.72,3.83-9.09,4.74c-2.21,0.59-4.61,0.83-6.79,0.19c-2.5-0.73-4.51-2.56-5.69-4.72c-0.97-1.78-1.43-3.82-1.13-5.8
			c0.37-2.5,1.88-4.75,3.67-6.67c3.89-4.18,9.11-7.1,14.41-9.62c8.46-4.03,17.46-7.25,26.83-8.6c5.94-0.85,12.03-0.92,17.94,0
			c4.81,0.76,12.46,2.09,14.99,6.47c1.24,2.14,0.9,4.84-0.24,7.05c-3.04,5.94-10,11.04-15.78,14.61c-3.12,1.93-6.46,3.55-9.93,4.84
			c-1.77,0.66-3.59,1.23-5.42,1.71c-0.9,0.23-1.81,0.45-2.72,0.64c-0.86,0.18-1.95,0.54-2.82,0.48c0.21-1.39,1.01-2.9,1.47-4.25
			c3.78,0.23,8.69-0.43,11.41-5.59c0.27-0.5,0.99-2.65,0.14-3.84c-2.27-3.18-17.33-1.2-20.92,6.29c-0.22,0.46-2.25,4.85,0.22,7.5
			c1.28,1.38,3.21,1.66,4.14,1.74c-3.45,10.07-6.88,24.37-18.74,25.76c-7.51-0.2-4.92-11.42,2.33-8.36
			c0.98,0.36,1.03-0.56,0.08-0.76c-4.58-1.63-10.49,0.49-9.92,5.61c0.44,3.89,4.04,5.64,8.51,5.2c7.1-1.14,11.66-6,14.52-11.83
			c1.43-2.91,2.49-5.96,3.56-8.99c0.52-1.46,1.03-2.93,1.59-4.38c0.2-0.51,0.39-1.51,0.85-1.86c0.64-0.47,2.57-0.52,3.39-0.72
			c11.72-2.82,22.57-8.87,30.73-17.19c2.4-2.45,4.61-5.14,5.83-8.24c0.47-1.18,0.79-2.44,0.64-3.69
			C88.26,47.85,88.13,47.37,87.94,46.9z M58.8,63.7c1.25,2.05-4.12,7.58-8.34,6.46c0.92-2.2,1.85-4.39,2.77-6.59
			C56.99,62.74,58.38,63.06,58.8,63.7z M45.59,75.97c0.02,0,0.04,0,0.05,0C45.62,75.97,45.6,75.98,45.59,75.97
			C45.58,75.98,45.59,75.97,45.59,75.97c-0.59,0.01-2.58-0.03-3.8-1.33c-1.96-2.1-0.11-5.56,0.13-6c2.23-4.16,8.03-4.78,8.66-4.84
			c-0.99,2.09-1.98,4.32-2.93,6.67C46.89,72.35,46.21,74.19,45.59,75.97z"/>
		
			<linearGradient id="SVGID_00000142877873211042087240000008945026399206758579_" gradientUnits="userSpaceOnUse" x1="1.4128" y1="73.314" x2="122.8062" y2="73.314">
			<stop  offset="0" style="stop-color:#0072BC"/>
			<stop  offset="0.4749" style="stop-color:#2E3192"/>
			<stop  offset="1" style="stop-color:#92278F"/>
		</linearGradient>
		<path style="fill:url(#SVGID_00000142877873211042087240000008945026399206758579_);" d="M46.02,73.31
			C46.02,73.31,46.02,73.32,46.02,73.31c0.02,0.01,0.03,0,0.05,0C46.06,73.31,46.04,73.31,46.02,73.31z"/>
		
			<linearGradient id="SVGID_00000183206812054896388900000008295954688918795945_" gradientUnits="userSpaceOnUse" x1="1.4128" y1="68.1704" x2="122.8062" y2="68.1704">
			<stop  offset="0" style="stop-color:#0072BC"/>
			<stop  offset="0.4749" style="stop-color:#2E3192"/>
			<stop  offset="1" style="stop-color:#92278F"/>
		</linearGradient>
		<path style="fill:url(#SVGID_00000183206812054896388900000008295954688918795945_);" d="M50.46,68.62c0.09-0.31,0.19-0.65,0.3-1
			c-0.61,0.2-1.26,0.35-1.96,0.46c0.16,0.09,0.75,0.42,1.63,0.63c0.01-0.02,0.02-0.05,0.02-0.08
			C50.46,68.64,50.46,68.63,50.46,68.62z"/>
	</g>
	<g>
		
			<linearGradient id="SVGID_00000107569096485493414530000011137185610063715234_" gradientUnits="userSpaceOnUse" x1="1.4128" y1="53.7086" x2="122.8062" y2="53.7086">
			<stop  offset="0" style="stop-color:#0072BC"/>
			<stop  offset="0.4749" style="stop-color:#2E3192"/>
			<stop  offset="1" style="stop-color:#92278F"/>
		</linearGradient>
		<path style="fill:url(#SVGID_00000107569096485493414530000011137185610063715234_);" d="M28,52.02c-0.55-1-2.37-1.06-4.06-0.13
			c-1.69,0.93-2.61,2.5-2.05,3.5c0.55,1,2.37,1.06,4.06,0.13C27.63,54.59,28.55,53.02,28,52.02z"/>
		
			<linearGradient id="SVGID_00000034067043104592512280000000264503355804407947_" gradientUnits="userSpaceOnUse" x1="1.4128" y1="46.8178" x2="122.8062" y2="46.8178">
			<stop  offset="0" style="stop-color:#0072BC"/>
			<stop  offset="0.4749" style="stop-color:#2E3192"/>
			<stop  offset="1" style="stop-color:#92278F"/>
		</linearGradient>
		<path style="fill:url(#SVGID_00000034067043104592512280000000264503355804407947_);" d="M43.86,46.02
			c-0.26-1.11-1.99-1.66-3.87-1.22c-1.88,0.44-3.18,1.7-2.92,2.82c0.26,1.11,1.99,1.66,3.87,1.22
			C42.81,48.39,44.12,47.13,43.86,46.02z"/>
		
			<linearGradient id="SVGID_00000047777951372440730550000009263720445906512032_" gradientUnits="userSpaceOnUse" x1="1.4128" y1="44.2994" x2="122.8062" y2="44.2994">
			<stop  offset="0" style="stop-color:#0072BC"/>
			<stop  offset="0.4749" style="stop-color:#2E3192"/>
			<stop  offset="1" style="stop-color:#92278F"/>
		</linearGradient>
		<path style="fill:url(#SVGID_00000047777951372440730550000009263720445906512032_);" d="M60.93,44.3c0-1.14-1.56-2.07-3.49-2.07
			c-1.93,0-3.49,0.93-3.49,2.07c0,1.14,1.56,2.07,3.49,2.07C59.37,46.37,60.93,45.44,60.93,44.3z"/>
	</g>
	<rect x="88.28" y="107.24" class="st4" width="50.08" height="4.52"/>
	<text transform="matrix(1 0 0 1 88.276 110.9311)" class="st100 st101">Event Management</text>
</g>
</svg>
