<?xml version="1.0" encoding="utf-8"?>
<!-- Generator: Adobe Illustrator 26.0.0, SVG Export Plug-In . SVG Version: 6.00 Build 0)  -->
<svg version="1.1" id="Layer_1" xmlns="http://www.w3.org/2000/svg" xmlns:xlink="http://www.w3.org/1999/xlink" x="0px" y="0px"
	 viewBox="0 0 418.39 242.57" style="enable-background:new 0 0 418.39 242.57;" xml:space="preserve">
<style type="text/css">
	.st0{fill:none;stroke:#000000;stroke-width:9;stroke-miterlimit:10;}
	.st1{display:none;}
	.st2{fill:url(#SVGID_1_);}
	.st3{fill:none;stroke:#000000;stroke-width:14.3071;stroke-miterlimit:10;}
	.st4{fill:none;}
	.st5{fill:url(#SVGID_00000008833994107163371230000007256463210273988542_);}
	.st6{fill:url(#SVGID_00000094580418381522158000000001728796035925274005_);}
	.st7{fill:url(#SVGID_00000105397913064727251660000006842503215086350988_);}
	.st8{fill:url(#SVGID_00000060020742692217922290000002163740203953798328_);}
	.st9{fill:url(#SVGID_00000002348882975381085810000008944029972166954684_);}
	.st10{fill:#FFCB05;}
	.st11{fill:url(#SVGID_00000052792608706703012210000004162705616749410183_);}
	.st12{fill:url(#SVGID_00000000902059710181083420000015319415430879862938_);}
	.st13{fill:url(#SVGID_00000138555102712220999420000005607131322529165209_);}
	.st14{fill:url(#SVGID_00000013151305414844015970000001581332786536360587_);}
	.st15{fill:url(#SVGID_00000059992063861917580400000007741022242351472014_);}
	.st16{fill:url(#SVGID_00000149359088330977624840000008017138713064254376_);}
	.st17{fill:url(#SVGID_00000154397985031046408340000006261064191484232086_);}
	.st18{fill:url(#SVGID_00000008830866292894353010000011023639888866871999_);}
	.st19{fill:url(#SVGID_00000131356315085779869990000004519852359879560601_);}
	.st20{fill:url(#SVGID_00000127027934249869510860000002094597631766184364_);}
	.st21{fill:url(#SVGID_00000061440540511204377630000015723111421766878396_);}
	.st22{fill:url(#SVGID_00000036225508555004812680000008044027290810878621_);}
	.st23{fill:url(#SVGID_00000115493450159863219110000010871680677460549044_);}
	.st24{fill:url(#SVGID_00000119838748003341913130000011307348981642611119_);}
	.st25{fill:#F47634;}
	.st26{fill:url(#SVGID_00000028320287329296139850000007769749414884053916_);}
	.st27{fill:url(#SVGID_00000078738511896770820740000004930184683377658275_);}
	.st28{fill:url(#SVGID_00000166661874009382865560000016043475233301219752_);}
	.st29{fill:url(#SVGID_00000182528104843980723660000002860424035207570091_);}
	.st30{fill:url(#SVGID_00000125603331176848300130000016112563265594838942_);}
	.st31{fill:url(#SVGID_00000093178503356093832920000015302537650623956128_);}
	.st32{fill:url(#SVGID_00000013165283689723306000000005654561164834642346_);}
	.st33{fill:url(#SVGID_00000052807307556945402070000001030056488162714764_);}
	.st34{fill:url(#SVGID_00000071545178954559950640000015866817570816630680_);}
	.st35{fill:#4E2D87;}
	.st36{fill:#F26722;}
	.st37{fill:url(#SVGID_00000004529136577257328450000004225081215588390562_);}
	.st38{fill:url(#SVGID_00000022558122842239896860000012364738122169039762_);}
	.st39{fill:url(#SVGID_00000132083949521312139610000011556157803926578331_);}
	.st40{fill:url(#SVGID_00000031188709705121158030000009509476105576464031_);}
	.st41{fill:url(#SVGID_00000109715210802758491030000002994219322907442333_);}
	.st42{fill:#F8BD43;}
	.st43{fill:url(#SVGID_00000092443604291439051940000014165407178007646370_);}
	.st44{fill:url(#SVGID_00000049916087357799183970000006604683321697858688_);}
	.st45{fill:url(#SVGID_00000054228239224897721180000013058891352685817007_);}
	.st46{fill:url(#SVGID_00000056422500117187358080000017869449657227198592_);}
	.st47{fill:url(#SVGID_00000046303350079824550620000016079688043638954891_);}
	.st48{fill:url(#SVGID_00000080186958995242496260000007043095889190221751_);}
	.st49{fill:url(#SVGID_00000149380449742474968600000002632394712834355072_);}
	.st50{fill:url(#SVGID_00000029729505026365636560000000940425324066412734_);}
	.st51{fill:url(#SVGID_00000022549010559394856420000016667340839947038098_);}
	.st52{fill:#ED1846;}
	.st53{fill:#2E3192;}
	.st54{fill:url(#SVGID_00000155849522954547776490000007356206575025378213_);}
	.st55{fill:url(#SVGID_00000037668507996909115010000006077496906938431912_);}
	.st56{fill:url(#SVGID_00000134961607634190499630000017834517923071047054_);}
	.st57{fill:url(#SVGID_00000036232493053666242100000008610940541290812044_);}
	.st58{fill:url(#SVGID_00000168109729654713834120000015767586584428103079_);}
	.st59{fill:#EF404A;}
	.st60{fill:url(#SVGID_00000006676401233577896220000003746266516381235642_);}
	.st61{fill:url(#SVGID_00000001651067682508978460000016871584670294519230_);}
	.st62{fill:url(#SVGID_00000028283567831820294910000004177920782963524226_);}
	.st63{fill:url(#SVGID_00000083802204237579261760000000687566976205170050_);}
	.st64{fill:url(#SVGID_00000106114142332905909400000014372908860619564679_);}
	.st65{fill:url(#SVGID_00000012472437151100771700000007747829598637012361_);}
	.st66{fill:url(#SVGID_00000101806620277458625790000004148261617115190710_);}
	.st67{fill:url(#SVGID_00000045607388618036203370000017269593832129414272_);}
	.st68{fill:url(#SVGID_00000175281303065741610040000001610196700147690410_);}
	.st69{fill:url(#SVGID_00000024701279948442022560000002865498940992602043_);}
	.st70{fill:url(#SVGID_00000080913692975183030090000013694511730422280115_);}
	.st71{fill:url(#SVGID_00000104679471960501148800000002027539848877041075_);}
	.st72{fill:url(#SVGID_00000159456597058028969790000000418193141432925085_);}
	.st73{fill:url(#SVGID_00000175313375164519881590000017929625550354702482_);}
	.st74{fill:url(#SVGID_00000025400349116891922190000011546408328472088759_);}
	.st75{fill:url(#SVGID_00000171694651920524318300000010198045387955165887_);}
	.st76{fill:url(#SVGID_00000062187633625140096500000016615846552138259621_);}
	.st77{fill:url(#SVGID_00000090981887375678207980000014770812005317013661_);}
	.st78{fill:url(#SVGID_00000065790165800855443650000004082128130757998241_);}
	.st79{fill:url(#SVGID_00000118355430189655024710000015064627697135306677_);}
	.st80{fill:url(#SVGID_00000042738126576006212780000012257334038094112925_);}
	.st81{fill:url(#SVGID_00000174604260395369040420000010553978701483046319_);}
	.st82{fill:url(#SVGID_00000134942594940102680770000013737286679996269962_);}
	.st83{fill:url(#SVGID_00000115477337627692782260000015929557052744643251_);}
	.st84{fill:url(#SVGID_00000044879868252118378870000007674446594139455667_);}
	.st85{fill:url(#SVGID_00000094584784810744021030000003558769119422753167_);}
	.st86{fill:url(#SVGID_00000033338588376928548010000008273146390931266193_);}
	.st87{fill:url(#SVGID_00000018228359544475852230000009303665570723876483_);}
	.st88{fill:url(#SVGID_00000072242493277005975480000011537485749107745703_);}
	.st89{fill:url(#SVGID_00000168820743371239590740000007789268760398344860_);}
	.st90{fill:#F6871F;}
	.st91{fill:url(#SVGID_00000133528698443173371000000009178948508850749854_);}
	.st92{fill:url(#SVGID_00000070815769321662822550000015558931639251802805_);}
	.st93{fill:url(#SVGID_00000077304045854209990190000010236182289158640038_);}
	.st94{fill:url(#SVGID_00000052092039703260213520000014808246266047035298_);}
	.st95{fill:url(#SVGID_00000050646460038493469230000002154650426549727654_);}
	.st96{fill:url(#SVGID_00000153675908740078653230000006979818963497787528_);}
	.st97{fill:url(#SVGID_00000158726264931284551030000016398597532847297709_);}
	.st98{fill:url(#SVGID_00000160183704979661932270000002720244739080294273_);}
	.st99{fill:url(#SVGID_00000033332406781864221100000000178096294214203291_);}
	.st100{font-family:'Montserrat-Bold';}
	.st101{font-size:14.1637px;}
	.st102{fill:url(#SVGID_00000121958405869490224960000004156070886555326393_);}
	.st103{fill:url(#SVGID_00000008868732820032946450000012387166395130589846_);}
	.st104{fill:url(#SVGID_00000167379369613611229850000014676811306303912116_);}
	.st105{fill:url(#SVGID_00000114037194107585276370000018050171531160043426_);}
	.st106{fill:url(#SVGID_00000128475696807956808180000010751570321574806184_);}
	.st107{fill:url(#SVGID_00000100378118088786821750000002948468769633719986_);}
	.st108{fill:url(#SVGID_00000152256998715682849600000011484518207547909278_);}
	.st109{fill:url(#SVGID_00000176020465293719101130000008470124740929158283_);}
	.st110{fill:url(#SVGID_00000108987894888979449900000012791941713659221678_);}
	.st111{fill:url(#SVGID_00000168105104952661094000000016688924297615749286_);}
	.st112{fill:url(#SVGID_00000014606988996598248930000011764353287851281305_);}
	.st113{fill:url(#SVGID_00000129169050717860410540000014362731979300923292_);}
	.st114{fill:url(#SVGID_00000160891909850461290350000011012279897498654860_);}
	.st115{fill:url(#SVGID_00000103958701783261603730000013969711625125923502_);}
	.st116{fill:url(#SVGID_00000067219685422833701150000001071738998303657098_);}
	.st117{fill:url(#SVGID_00000070086939227918994730000000420930002922280368_);}
	.st118{fill:url(#SVGID_00000013179465909204351120000011443477555023681690_);}
	.st119{fill:url(#SVGID_00000070820312440889107640000006485444213114301877_);}
	.st120{fill:url(#SVGID_00000178920687182387263160000008659004464464373173_);}
	.st121{fill:#F9A01B;}
	.st122{fill:url(#SVGID_00000146492086375702218920000000500229868069827459_);}
	.st123{fill:url(#SVGID_00000108296267927262123450000015327660047072787894_);}
	.st124{fill:url(#SVGID_00000046329380415831357090000010130997488180149642_);}
	.st125{fill:url(#SVGID_00000057110174097208794160000015668662933379990168_);}
	.st126{fill:url(#SVGID_00000034067309754738817810000016841938983006573740_);}
	.st127{fill:url(#SVGID_00000066508182120137752650000007918217706583127733_);}
	.st128{fill:url(#SVGID_00000035495336523841980110000002125324814861949119_);}
	.st129{fill:url(#SVGID_00000131356513455141795820000015180823976759917201_);}
	.st130{fill:url(#SVGID_00000107562205735319281200000016181254684427017406_);}
	.st131{fill:url(#SVGID_00000039843390813512177300000013424173644287604380_);}
	.st132{fill:#587BBD;}
	.st133{fill:url(#SVGID_00000109723319135419468270000013768695209401933448_);}
	.st134{fill:#3EC0C2;}
	.st135{fill:#F0554D;}
	.st136{fill:#432E80;}
	.st137{fill:url(#SVGID_00000093144143097298040220000014104343502409462150_);}
	.st138{fill:#BC1B8D;}
	.st139{fill:#2A388F;}
	.st140{fill:url(#SVGID_00000176740803313094752060000000986748251062350244_);}
	.st141{fill:#96577F;}
	.st142{fill:#0072BC;}
	.st143{fill:#92278F;}
	.st144{fill:url(#SVGID_00000049904703830955780000000016185205596788742570_);}
	.st145{fill:#FFFFFF;}
	.st146{opacity:0.3;fill:url(#SVGID_00000014603321135130890910000014340161889307361980_);}
	.st147{fill:url(#SVGID_00000153702018564920301870000005425152028123311250_);}
	.st148{fill:url(#SVGID_00000087398752744951767120000000111245691765929114_);}
	.st149{fill:url(#SVGID_00000101813336158541144460000002311464148918870962_);}
	.st150{fill:url(#SVGID_00000092436036844563852650000017535620317293219762_);}
	.st151{fill:url(#SVGID_00000150078970333433318410000014293668998868168853_);}
	.st152{fill:url(#SVGID_00000180345650986988295950000012590471419019046301_);}
	.st153{fill:url(#SVGID_00000165940024823382891170000003788409313101063606_);}
	.st154{fill:url(#SVGID_00000044166482679030603760000000775244270067549590_);}
	.st155{fill:url(#SVGID_00000002382681480986386340000017920611092078289046_);}
	.st156{fill:url(#SVGID_00000130612782820524974130000016125424624203962016_);}
	.st157{fill:url(#SVGID_00000057150413900286672840000001254481334841161905_);}
	.st158{fill:url(#SVGID_00000091003408144602399520000002574317597819811479_);}
	.st159{fill:url(#SVGID_00000042726292604732387790000011117503643473343128_);}
	.st160{fill:url(#SVGID_00000029729202129333731190000014053496954362109867_);}
</style>
<g>
	<linearGradient id="SVGID_1_" gradientUnits="userSpaceOnUse" x1="-0.9461" y1="167.286" x2="344.5218" y2="167.286">
		<stop  offset="0" style="stop-color:#0072BC"/>
		<stop  offset="0.4749" style="stop-color:#2E3192"/>
		<stop  offset="1" style="stop-color:#92278F"/>
	</linearGradient>
	<path class="st2" d="M194.2,166.03c-10.7,21.87-19.78,33.11-27.24,33.71c-3.49,0.24-6.16-0.91-8.03-3.45
		c-1.87-2.54-2.8-5.63-2.8-9.27c0-3.15,0.6-6.72,1.8-10.72c-9.38,15.63-17.8,23.45-25.25,23.45c-3.49,0-6.13-1.75-7.94-5.26
		c-1.44-2.78-2.16-6.11-2.16-9.98c0-11.49,5.05-23.34,15.15-35.55c3.25-3.99,7.45-7.34,12.63-10.07c5.17-2.72,10.22-4.08,15.15-4.08
		c5.89,0,10.58,1.92,14.07,5.77c0.84,0.96,1.26,1.93,1.26,2.89c0,2.05-1.08,2.83-3.25,2.35c-1.2-4.33-3.97-6.49-8.3-6.49
		c-5.05,0-11,3.57-17.86,10.71c-5.05,5.21-9.44,10.95-13.17,17.25c-5.05,8.47-7.58,15.55-7.58,21.24c0,4.12,1.5,6.17,4.51,6.17
		c7.33,0,16.77-11.11,28.32-33.32c2.4-4.59,4.21-7.55,5.41-8.88c1.92-2.05,4.21-2.96,6.85-2.72c0.6,0,1.8,0.18,3.61,0.54
		c1.8,0.36,3.12,0.42,3.97,0.18c-2.77,2.77-6.07,8.12-9.92,16.05c-3.61,7.46-5.89,13.35-6.85,17.68c-0.48,2.29-0.72,4.33-0.72,6.13
		c0,3.13,0.84,4.69,2.53,4.69c5.53,0.24,13.29-9.91,23.27-30.47c0.6-1.21,1.32-1.81,2.16-1.81c0.6,0,0.9,0.36,0.9,1.09
		C194.75,164.58,194.56,165.3,194.2,166.03z"/>
	
		<linearGradient id="SVGID_00000023983265322068950170000016498387343664172212_" gradientUnits="userSpaceOnUse" x1="-0.9461" y1="142.9205" x2="344.5218" y2="142.9205">
		<stop  offset="0" style="stop-color:#0072BC"/>
		<stop  offset="0.4749" style="stop-color:#2E3192"/>
		<stop  offset="1" style="stop-color:#92278F"/>
	</linearGradient>
	<path style="fill:url(#SVGID_00000023983265322068950170000016498387343664172212_);" d="M238.57,110.35
		c-10.46,23.17-22.79,41.26-36.98,54.29c-1.2,2.9-2.47,6.88-3.79,11.94c-0.84,3.14-1.26,6.15-1.26,9.05
		c0,6.76,2.28,10.13,6.85,10.13c4.21,0,8.54-2.73,12.99-8.21c0.72-0.85,3.43-5.41,8.12-13.68c4.21-7.41,6.73-11.12,7.57-11.12
		c0.48,0,0.72,0.36,0.72,1.09c0,0.36-0.18,0.97-0.54,1.81c-4.81,10.51-8.6,17.64-11.36,21.39c-6.25,8.46-13.29,12.69-21.1,12.69
		c-8.42,0-12.63-4.39-12.63-13.19c0-3.86,1.56-11.32,4.69-22.4c6.25-22.16,15.39-43.42,27.42-63.77
		c5.65-9.51,11.42-14.27,17.32-14.27c4.21,0,6.31,2.78,6.31,8.33C242.9,98.65,241.46,103.96,238.57,110.35z M235.87,107.57
		c1.92-4.57,2.89-8.42,2.89-11.54c0-1.68-0.42-2.53-1.26-2.53c-1.2,0-3.19,1.98-5.95,5.95c-8.06,11.54-17.56,31.27-28.5,59.16
		C216.03,145.51,226.97,128.49,235.87,107.57z"/>
	
		<linearGradient id="SVGID_00000069365207198854109410000011486083769005219001_" gradientUnits="userSpaceOnUse" x1="-0.9461" y1="167.3607" x2="344.5218" y2="167.3607">
		<stop  offset="0" style="stop-color:#0072BC"/>
		<stop  offset="0.4749" style="stop-color:#2E3192"/>
		<stop  offset="1" style="stop-color:#92278F"/>
	</linearGradient>
	<path style="fill:url(#SVGID_00000069365207198854109410000011486083769005219001_);" d="M276.99,165.45
		c-5.05,10.89-9.14,18.37-12.26,22.44c-6.13,7.9-13.53,11.84-22.18,11.84c-5.05,0-9.17-1.62-12.36-4.86
		c-3.19-3.24-4.84-7.37-4.96-12.41c-0.12-11.15,4.51-22.36,13.89-33.64c7.69-9.23,15.63-13.85,23.81-13.85
		c6.73,0,10.1,2.87,10.1,8.61c0,6.58-4.35,13.15-13.05,19.72c-2.42,1.79-6.01,3.56-10.79,5.29c-4.77,1.73-8.61,2.6-11.51,2.6
		c-1.57,3.95-2.36,8.25-2.36,12.91c0,7.77,2.84,11.65,8.51,11.65c10.99,0,20.95-10.17,29.89-30.51c0.72-1.66,1.69-2.5,2.9-2.5
		c0.6,0,0.9,0.36,0.9,1.08C277.53,164.08,277.35,164.62,276.99,165.45z M268.15,142.92c0-2.64-0.96-3.97-2.89-3.97
		c-3.37,0-8.48,4.15-15.33,12.45c-3.61,4.45-7.21,10.1-10.82,16.95c6.25,0,12.65-2.71,19.21-8.12
		C264.87,154.82,268.15,149.05,268.15,142.92z"/>
	
		<linearGradient id="SVGID_00000134234227977952768170000004679589545783274937_" gradientUnits="userSpaceOnUse" x1="-0.9461" y1="144.9952" x2="344.5218" y2="144.9952">
		<stop  offset="0" style="stop-color:#0072BC"/>
		<stop  offset="0.4749" style="stop-color:#2E3192"/>
		<stop  offset="1" style="stop-color:#92278F"/>
	</linearGradient>
	<path style="fill:url(#SVGID_00000134234227977952768170000004679589545783274937_);" d="M318.65,130.66
		c0.84,0,1.26,0.54,1.26,1.62c0,1.56-0.54,2.35-1.62,2.35h-10.46c-6.49,11.18-14.49,21.1-23.99,29.76
		c-0.96,2.53-2.35,8.66-4.15,18.4c-0.36,1.93-0.54,3.37-0.54,4.33c0,4.81,1.98,7.21,5.95,7.21c6.97,0,15.33-9.92,25.07-29.76
		c0.6-1.32,1.32-1.98,2.16-1.98c0.48,0,0.72,0.36,0.72,1.08c0,0.6-0.18,1.26-0.54,1.98c-6.61,14.19-12.45,23.69-17.5,28.5
		c-3.49,3.37-7.58,5.05-12.27,5.05c-3.73,0-6.79-1.23-9.2-3.7c-2.41-2.46-3.61-6.1-3.61-10.91c0-10.46,4.75-27.11,14.25-49.96h-9.38
		c-0.84,0-1.26-0.6-1.26-1.8c0-1.44,0.54-2.16,1.62-2.16h10.82c4.09-8.9,8.48-17.43,13.17-25.61c5.41-9.5,11.06-14.25,16.95-14.25
		c4.09,0,6.13,2.71,6.13,8.12c0,6.25-4.09,16.84-12.26,31.74H318.65z M303.68,134.62h-8.48c-1.8,4.33-5.05,12.33-9.74,23.99
		C291.84,152.24,297.91,144.25,303.68,134.62z M315.05,112.26c1.92-4.45,2.89-8.36,2.89-11.72c0-1.92-0.42-2.89-1.26-2.89
		c-1.44,0-3.73,2.23-6.85,6.67c-2.05,2.89-6.31,11.66-12.81,26.33h9.02C309.03,125.24,312.04,119.11,315.05,112.26z"/>
	
		<linearGradient id="SVGID_00000029743422303728744110000002898023681455915953_" gradientUnits="userSpaceOnUse" x1="-0.9461" y1="144.9952" x2="344.5218" y2="144.9952">
		<stop  offset="0" style="stop-color:#0072BC"/>
		<stop  offset="0.4749" style="stop-color:#2E3192"/>
		<stop  offset="1" style="stop-color:#92278F"/>
	</linearGradient>
	<path style="fill:url(#SVGID_00000029743422303728744110000002898023681455915953_);" d="M354.18,130.66
		c0.84,0,1.26,0.54,1.26,1.62c0,1.56-0.54,2.35-1.62,2.35h-10.46c-6.49,11.18-14.49,21.1-23.99,29.76
		c-0.96,2.53-2.35,8.66-4.15,18.4c-0.36,1.93-0.54,3.37-0.54,4.33c0,4.81,1.98,7.21,5.95,7.21c6.97,0,15.33-9.92,25.07-29.76
		c0.6-1.32,1.32-1.98,2.16-1.98c0.48,0,0.72,0.36,0.72,1.08c0,0.6-0.18,1.26-0.54,1.98c-6.61,14.19-12.45,23.69-17.5,28.5
		c-3.49,3.37-7.58,5.05-12.26,5.05c-3.73,0-6.79-1.23-9.2-3.7c-2.41-2.46-3.61-6.1-3.61-10.91c0-10.46,4.75-27.11,14.25-49.96h-9.38
		c-0.84,0-1.26-0.6-1.26-1.8c0-1.44,0.54-2.16,1.62-2.16h10.82c4.09-8.9,8.48-17.43,13.17-25.61c5.41-9.5,11.06-14.25,16.95-14.25
		c4.09,0,6.13,2.71,6.13,8.12c0,6.25-4.09,16.84-12.26,31.74H354.18z M339.21,134.62h-8.48c-1.8,4.33-5.05,12.33-9.74,23.99
		C327.37,152.24,333.44,144.25,339.21,134.62z M350.58,112.26c1.92-4.45,2.89-8.36,2.89-11.72c0-1.92-0.42-2.89-1.26-2.89
		c-1.44,0-3.73,2.23-6.85,6.67c-2.05,2.89-6.31,11.66-12.81,26.33h9.02C344.56,125.24,347.57,119.11,350.58,112.26z"/>
	<path class="st90" d="M408.11,165.47c-4.09,9.5-7.46,16.11-10.1,19.84c-5.65,8.18-11.97,12.26-18.94,12.26
		c-4.09,0-7.52-1.5-10.28-4.51c-5.53,4.21-10.76,6.25-15.69,6.13c-8.42-0.24-12.63-5.61-12.63-16.1c0-5.3,1.26-10.91,3.79-16.82
		c3.25-7.48,7.76-14.11,13.53-19.9c6.97-7.11,13.89-10.61,20.74-10.49c8.42,0.24,12.63,5.55,12.63,15.92
		c0,13.63-6.31,26.42-18.94,38.36c1.56,2.78,4.45,4.16,8.66,4.16c5.41,0,10.88-4.39,16.41-13.17c1.8-2.89,4.69-8.72,8.66-17.5
		c0.36-0.6,0.78-0.9,1.26-0.9c0.84,0,1.26,0.48,1.26,1.44C408.47,164.45,408.35,164.87,408.11,165.47z M380.37,141.48
		c-4.43,0-9.15,3.03-14.18,9.08c-3.71,4.36-6.82,9.32-9.33,14.89c-4.19,9.08-6.28,16.35-6.28,21.79c0,5.33,2.02,7.99,6.07,7.99
		c3.09,0,6.48-1.56,10.17-4.69c-1.93-3-2.89-5.95-2.89-8.84c0.12-5.17,2.22-7.76,6.31-7.76c3.61,0,5.41,1.8,5.41,5.41
		c0,0.72,0,1.38,0,1.98c1.98-2.79,3.78-6.06,5.41-9.83c3.73-8.37,5.59-15.41,5.59-21.11C386.65,144.45,384.55,141.48,380.37,141.48z
		"/>
	<g>
		
			<linearGradient id="SVGID_00000094620477805533764230000005674205856785098647_" gradientUnits="userSpaceOnUse" x1="-0.9461" y1="68.1996" x2="282.0162" y2="68.1996">
			<stop  offset="0" style="stop-color:#0072BC"/>
			<stop  offset="0.4749" style="stop-color:#2E3192"/>
			<stop  offset="1" style="stop-color:#92278F"/>
		</linearGradient>
		<path style="fill:url(#SVGID_00000094620477805533764230000005674205856785098647_);" d="M146.64,68.19l0.02,0
			c-0.01,0-0.02,0.01-0.04,0.01C146.63,68.2,146.64,68.2,146.64,68.19z"/>
		
			<linearGradient id="SVGID_00000017512468656835148440000015123941147885137065_" gradientUnits="userSpaceOnUse" x1="-0.9461" y1="68.1996" x2="282.0162" y2="68.1996">
			<stop  offset="0" style="stop-color:#0072BC"/>
			<stop  offset="0.4749" style="stop-color:#2E3192"/>
			<stop  offset="1" style="stop-color:#92278F"/>
		</linearGradient>
		<path style="fill:url(#SVGID_00000017512468656835148440000015123941147885137065_);" d="M146.64,68.19
			c-0.01,0.01-0.01,0.01-0.02,0.02c0.01-0.01,0.02-0.01,0.04-0.01L146.64,68.19z"/>
		
			<linearGradient id="SVGID_00000015334124414390086880000009924787128366232212_" gradientUnits="userSpaceOnUse" x1="-0.9461" y1="66.4789" x2="344.5218" y2="66.4789">
			<stop  offset="0" style="stop-color:#0072BC"/>
			<stop  offset="0.4749" style="stop-color:#2E3192"/>
			<stop  offset="1" style="stop-color:#92278F"/>
		</linearGradient>
		<path style="fill:url(#SVGID_00000015334124414390086880000009924787128366232212_);" d="M116.75,66.56
			c0.06-0.05,0.11-0.11,0.17-0.16c-0.02,0-0.03,0-0.05,0C116.84,66.45,116.79,66.51,116.75,66.56z"/>
		
			<linearGradient id="SVGID_00000062180817869413482740000013028489154819925382_" gradientUnits="userSpaceOnUse" x1="-0.9461" y1="110.244" x2="344.5218" y2="110.244">
			<stop  offset="0" style="stop-color:#0072BC"/>
			<stop  offset="0.4749" style="stop-color:#2E3192"/>
			<stop  offset="1" style="stop-color:#92278F"/>
		</linearGradient>
		<path style="fill:url(#SVGID_00000062180817869413482740000013028489154819925382_);" d="M245.29,39.46
			c-2.22-5.3-7.24-9.58-12.55-12.7c-13.56-7.96-29.98-10.84-46.12-11.67c-34.92-1.81-70.07,5.23-102.74,17.27
			c-21.5,7.92-42.5,18.29-58.39,33.89c-7.76,7.61-14.33,16.7-16.4,26.92s1.08,21.69,9.85,28.08c16.72,12.17,40.65,2.34,56.28-6.99
			c9.15-5.46,17.82-12.03,23.52-20.6c1.21-1.82,2.32-3.96,1.74-6.01c-7.03,5.99-11.99,13.55-19.29,19.33
			c-7.58,6-16.27,10.9-25.88,13.48c-6.3,1.69-13.11,2.35-19.32,0.55c-7.13-2.07-12.84-7.29-16.19-13.44
			c-2.76-5.06-4.06-10.86-3.22-16.51c1.05-7.1,5.35-13.51,10.44-18.98c11.06-11.9,25.93-20.21,41.01-27.38
			c24.09-11.46,49.68-20.65,76.36-24.47c16.91-2.42,34.24-2.63,51.05,0.01c13.7,2.15,35.45,5.94,42.66,18.42
			c3.52,6.09,2.56,13.77-0.68,20.08c-8.67,16.9-28.47,31.42-44.91,41.57c-8.88,5.48-18.37,10.1-28.27,13.76
			c-5.05,1.87-10.21,3.49-15.44,4.85c-2.56,0.67-5.14,1.27-7.74,1.81c-2.44,0.51-5.54,1.54-8.01,1.37c0.6-3.95,2.88-8.24,4.18-12.1
			c10.75,0.66,24.72-1.23,32.47-15.91c0.75-1.43,2.82-7.54,0.4-10.93c-6.46-9.04-49.32-3.4-59.52,17.89
			c-0.62,1.3-6.4,13.81,0.62,21.34c3.65,3.91,9.13,4.74,11.78,4.95c-9.82,28.66-19.58,69.34-53.34,73.32
			c-21.37-0.57-13.99-32.49,6.62-23.78c2.79,1.03,2.93-1.59,0.23-2.16c-13.04-4.65-29.84,1.4-28.24,15.98
			c1.24,11.07,11.51,16.04,24.21,14.81c20.22-3.25,33.19-17.09,41.31-33.66c4.06-8.29,7.08-16.96,10.12-25.6
			c1.47-4.17,2.92-8.34,4.53-12.47c0.57-1.45,1.1-4.3,2.43-5.29c1.81-1.35,7.31-1.49,9.64-2.05c33.36-8.04,64.22-25.24,87.46-48.93
			c6.84-6.97,13.12-14.64,16.6-23.45c1.33-3.36,2.24-6.95,1.83-10.49C246.21,42.15,245.84,40.77,245.29,39.46z M162.36,87.25
			c3.55,5.83-11.73,21.58-23.73,18.37c2.63-6.25,5.26-12.5,7.89-18.75C157.23,84.51,161.18,85.43,162.36,87.25z M124.77,122.18
			c0.05,0,0.1,0,0.15-0.01c-0.05,0.01-0.1,0.02-0.16,0.03C124.76,122.2,124.76,122.19,124.77,122.18c-1.68,0.02-7.34-0.09-10.8-3.8
			c-5.59-5.98-0.32-15.81,0.37-17.09c6.35-11.85,22.84-13.61,24.65-13.78c-2.83,5.96-5.63,12.29-8.33,18.98
			C128.48,111.88,126.53,117.11,124.77,122.18z"/>
		
			<linearGradient id="SVGID_00000079472658934241357560000013101032041097146504_" gradientUnits="userSpaceOnUse" x1="-0.9461" y1="114.6151" x2="344.5218" y2="114.6151">
			<stop  offset="0" style="stop-color:#0072BC"/>
			<stop  offset="0.4749" style="stop-color:#2E3192"/>
			<stop  offset="1" style="stop-color:#92278F"/>
		</linearGradient>
		<path style="fill:url(#SVGID_00000079472658934241357560000013101032041097146504_);" d="M126.01,114.6
			c0,0.01-0.01,0.02-0.01,0.03c0.05-0.01,0.11-0.02,0.16-0.03C126.11,114.6,126.06,114.6,126.01,114.6z"/>
		
			<linearGradient id="SVGID_00000182503371570264587570000013879402096114249656_" gradientUnits="userSpaceOnUse" x1="-0.9461" y1="99.9771" x2="344.5218" y2="99.9771">
			<stop  offset="0" style="stop-color:#0072BC"/>
			<stop  offset="0.4749" style="stop-color:#2E3192"/>
			<stop  offset="1" style="stop-color:#92278F"/>
		</linearGradient>
		<path style="fill:url(#SVGID_00000182503371570264587570000013879402096114249656_);" d="M138.64,101.26
			c0.27-0.89,0.55-1.84,0.86-2.84c-1.74,0.56-3.6,1.01-5.57,1.32c0.45,0.26,2.13,1.2,4.64,1.79c0.02-0.07,0.04-0.14,0.06-0.21
			C138.63,101.3,138.64,101.28,138.64,101.26z"/>
	</g>
	<g>
		
			<linearGradient id="SVGID_00000026159762695368064020000000843337047272618658_" gradientUnits="userSpaceOnUse" x1="-0.9461" y1="58.8209" x2="344.5218" y2="58.8209">
			<stop  offset="0" style="stop-color:#0072BC"/>
			<stop  offset="0.4749" style="stop-color:#2E3192"/>
			<stop  offset="1" style="stop-color:#92278F"/>
		</linearGradient>
		<path style="fill:url(#SVGID_00000026159762695368064020000000843337047272618658_);" d="M74.72,54.02
			c-1.58-2.85-6.74-3.01-11.54-0.36c-4.8,2.65-7.42,7.11-5.84,9.96s6.74,3.01,11.54,0.36C73.68,61.33,76.29,56.87,74.72,54.02z"/>
		
			<linearGradient id="SVGID_00000047773705822195460990000013564595613060050363_" gradientUnits="userSpaceOnUse" x1="-0.9461" y1="39.2107" x2="344.5218" y2="39.2107">
			<stop  offset="0" style="stop-color:#0072BC"/>
			<stop  offset="0.4749" style="stop-color:#2E3192"/>
			<stop  offset="1" style="stop-color:#92278F"/>
		</linearGradient>
		<path style="fill:url(#SVGID_00000047773705822195460990000013564595613060050363_);" d="M119.86,36.94
			c-0.74-3.17-5.68-4.72-11.02-3.47c-5.34,1.25-9.06,4.84-8.32,8.01c0.74,3.17,5.68,4.72,11.02,3.47
			C116.88,43.7,120.6,40.11,119.86,36.94z"/>
		
			<linearGradient id="SVGID_00000155131190096129198970000005662243503617479334_" gradientUnits="userSpaceOnUse" x1="-0.9461" y1="32.0436" x2="344.5218" y2="32.0436">
			<stop  offset="0" style="stop-color:#0072BC"/>
			<stop  offset="0.4749" style="stop-color:#2E3192"/>
			<stop  offset="1" style="stop-color:#92278F"/>
		</linearGradient>
		<path style="fill:url(#SVGID_00000155131190096129198970000005662243503617479334_);" d="M168.43,32.04c0-3.26-4.45-5.9-9.93-5.89
			s-9.93,2.64-9.93,5.9s4.45,5.9,9.93,5.89C163.98,37.94,168.43,35.3,168.43,32.04z"/>
	</g>
	<rect x="246.25" y="211.16" class="st4" width="142.51" height="12.86"/>
	<text transform="matrix(1 0 0 1 246.2553 221.6696)" class="st100 st101">Event Management</text>
</g>
</svg>
