<?xml version="1.0" encoding="utf-8"?>
<!-- Generator: Adobe Illustrator 26.0.0, SVG Export Plug-In . SVG Version: 6.00 Build 0)  -->
<svg version="1.1" id="Layer_1" xmlns="http://www.w3.org/2000/svg" xmlns:xlink="http://www.w3.org/1999/xlink" x="0px" y="0px"
	 viewBox="0 0 150 150" style="enable-background:new 0 0 150 150;" xml:space="preserve">
<style type="text/css">
	.st0{fill:none;stroke:#000000;stroke-width:9;stroke-miterlimit:10;}
	.st1{display:none;}
	.st2{fill:url(#SVGID_1_);}
	.st3{fill:none;stroke:#000000;stroke-width:14.3071;stroke-miterlimit:10;}
	.st4{fill:none;}
	.st5{fill:url(#SVGID_00000105400511431943200400000017750562054283315385_);}
	.st6{fill:url(#SVGID_00000103955809374937985100000013563889879210806161_);}
	.st7{fill:url(#SVGID_00000015347997824588485460000008325853666704738717_);}
	.st8{fill:url(#SVGID_00000163040534939497789330000010346963951482514842_);}
	.st9{fill:url(#SVGID_00000103952273156472784710000005088973289810751664_);}
	.st10{fill:#FFCB05;}
	.st11{fill:url(#SVGID_00000052819631631084580300000014196527616150004669_);}
	.st12{fill:url(#SVGID_00000171000622388602791920000005357000829074815389_);}
	.st13{fill:url(#SVGID_00000123433711385256937090000012877332161679974305_);}
	.st14{fill:url(#SVGID_00000005258266188100534010000011509050147104665262_);}
	.st15{fill:url(#SVGID_00000034799474789013422090000010816030077212315316_);}
	.st16{fill:url(#SVGID_00000083087751894094911270000011539520348919183747_);}
	.st17{fill:url(#SVGID_00000103252008600496912070000000067024837223200694_);}
	.st18{fill:url(#SVGID_00000051378399292968276610000012347063760312936582_);}
	.st19{fill:url(#SVGID_00000046310799179517654060000006576414038632589481_);}
	.st20{fill:url(#SVGID_00000160878804549804613740000008261002448321472956_);}
	.st21{fill:url(#SVGID_00000140723132281286129330000007532261530761312928_);}
	.st22{fill:url(#SVGID_00000062876939883489308450000008325347373369726108_);}
	.st23{fill:url(#SVGID_00000023262124982143369800000007675602268268590510_);}
	.st24{fill:url(#SVGID_00000004506271520738787510000002362392618131337657_);}
	.st25{fill:#F47634;}
	.st26{fill:url(#SVGID_00000139981506123396938070000000636695283075322524_);}
	.st27{fill:url(#SVGID_00000034792292609440401440000016358578549392847495_);}
	.st28{fill:url(#SVGID_00000075151111720284438370000013323242618907982487_);}
	.st29{fill:url(#SVGID_00000055685153845166065180000014613566099810558603_);}
	.st30{fill:url(#SVGID_00000162351564266345107760000008623003907254379655_);}
	.st31{fill:url(#SVGID_00000067927158369734222520000017243833475256819639_);}
	.st32{fill:url(#SVGID_00000178191629784120889100000011316224686115844483_);}
	.st33{fill:url(#SVGID_00000032612093594228548550000011388086483260327307_);}
	.st34{fill:url(#SVGID_00000173869521720619202910000008582773175571398536_);}
	.st35{fill:#4E2D87;}
	.st36{fill:#F26722;}
	.st37{fill:url(#SVGID_00000160911344156529490280000017058029013538956421_);}
	.st38{fill:url(#SVGID_00000072969558967649481650000010925148240776544691_);}
	.st39{fill:url(#SVGID_00000096019200664522442570000010549532956382093462_);}
	.st40{fill:url(#SVGID_00000059305317382862251300000006036714455162439297_);}
	.st41{fill:url(#SVGID_00000112628195229855878710000003779013667353144222_);}
	.st42{fill:#F8BD43;}
	.st43{fill:url(#SVGID_00000129200403319577156220000007253589290607254160_);}
	.st44{fill:url(#SVGID_00000145026468653179625720000002278704186156778164_);}
	.st45{fill:url(#SVGID_00000120541293525221377810000015890240970609767854_);}
	.st46{fill:url(#SVGID_00000167361862890126948610000008917167558971908760_);}
	.st47{fill:url(#SVGID_00000117644222513257107870000016093707423892775813_);}
	.st48{fill:url(#SVGID_00000061457076988982926860000013486549669136185225_);}
	.st49{fill:url(#SVGID_00000069393815753370073360000007614127926697402002_);}
	.st50{fill:url(#SVGID_00000073691042990774423210000013135927962739126159_);}
	.st51{fill:url(#SVGID_00000021841632275502052130000005374750349141602466_);}
	.st52{fill:#ED1846;}
	.st53{fill:#2E3192;}
	.st54{fill:url(#SVGID_00000170967516790868786770000001471392041442530473_);}
	.st55{fill:url(#SVGID_00000155114891076825898620000018387068230095661481_);}
	.st56{fill:url(#SVGID_00000106845649617117230420000002237278995702486440_);}
	.st57{fill:url(#SVGID_00000133516690724299293970000011499613886009976237_);}
	.st58{fill:url(#SVGID_00000094608112485043843860000017456181491594626724_);}
	.st59{fill:#EF404A;}
	.st60{fill:url(#SVGID_00000065760065586382994710000013129807634569186218_);}
	.st61{fill:url(#SVGID_00000062897320720241279020000004142819270828079791_);}
	.st62{fill:url(#SVGID_00000023970011743470899030000014302240867045360273_);}
	.st63{fill:url(#SVGID_00000118373128611719506100000005384963965072701072_);}
	.st64{fill:url(#SVGID_00000050626671400242331860000005643756631857270202_);}
	.st65{fill:url(#SVGID_00000105395693103645937720000014854712319872671669_);}
	.st66{fill:url(#SVGID_00000008852582152959767960000002530919091316593584_);}
	.st67{fill:url(#SVGID_00000025426103981307707250000005540392765064226995_);}
	.st68{fill:url(#SVGID_00000178925697413892551720000008919299114688471464_);}
	.st69{fill:url(#SVGID_00000157288704773958867170000018368778909365020045_);}
	.st70{fill:url(#SVGID_00000085247352578145136980000001488001795520799383_);}
	.st71{fill:url(#SVGID_00000101100132960257269830000011156893533609636743_);}
	.st72{fill:url(#SVGID_00000182524129692417301000000015835117732587393153_);}
	.st73{fill:url(#SVGID_00000128457035602574454100000004083450719151507113_);}
	.st74{fill:url(#SVGID_00000013912253982363432990000012116996851932835974_);}
	.st75{fill:url(#SVGID_00000021828966185025119750000007154197888614181507_);}
	.st76{fill:url(#SVGID_00000114755785357881723700000009364963108264756886_);}
	.st77{fill:url(#SVGID_00000175301576491112170860000005411448541063197073_);}
	.st78{fill:url(#SVGID_00000181080686872173790050000002368460179846832006_);}
	.st79{fill:url(#SVGID_00000103230507604727010250000012260406509024171422_);}
	.st80{fill:url(#SVGID_00000083770043356468653710000015758478099477978544_);}
	.st81{fill:url(#SVGID_00000111158652045217266520000000677851698249623714_);}
	.st82{fill:url(#SVGID_00000162333892511124629410000000201678725365835681_);}
	.st83{fill:url(#SVGID_00000163780800772081712550000012984206688589617339_);}
	.st84{fill:url(#SVGID_00000048498542130997937890000003007566343916534680_);}
	.st85{fill:url(#SVGID_00000052806041723170252560000013701231558067400579_);}
	.st86{fill:url(#SVGID_00000125591575662876855690000008334616438227759507_);}
	.st87{fill:url(#SVGID_00000154388762906203420260000016812783722067657887_);}
	.st88{fill:url(#SVGID_00000140733394033003864570000004873844878100436143_);}
	.st89{fill:url(#SVGID_00000096780352605324518420000015415429377874459050_);}
	.st90{fill:#F6871F;}
	.st91{fill:url(#SVGID_00000160884273726174388630000000074066585016255159_);}
	.st92{fill:url(#SVGID_00000001647164118974336250000000538139500140901518_);}
	.st93{fill:url(#SVGID_00000131353912402477965250000013136004540500154776_);}
	.st94{fill:url(#SVGID_00000106845531136726631620000016530980409477467834_);}
	.st95{fill:url(#SVGID_00000049206414696691427810000011262963570695111058_);}
	.st96{fill:url(#SVGID_00000120540831623355112840000003898957477618527673_);}
	.st97{fill:url(#SVGID_00000023962854243265684420000011577811628495332757_);}
	.st98{fill:url(#SVGID_00000044881680872406314230000010776391287933644728_);}
	.st99{fill:url(#SVGID_00000002348830270580018280000013152402440313196733_);}
	.st100{font-family:'Montserrat-Bold';}
	.st101{font-size:4.977px;}
	.st102{fill:url(#SVGID_00000060739300740598769320000018285713049581197489_);}
	.st103{fill:url(#SVGID_00000025401813577321131180000002666057939634853813_);}
	.st104{fill:url(#SVGID_00000009559025822271035760000008431132307311988107_);}
	.st105{fill:url(#SVGID_00000166666767559360583120000014134588941107938990_);}
	.st106{fill:url(#SVGID_00000109007557714962363360000011504130700446266807_);}
	.st107{fill:url(#SVGID_00000136405405656623605490000012201752312153082274_);}
	.st108{fill:url(#SVGID_00000063601589094997168160000001135668829399379903_);}
	.st109{fill:url(#SVGID_00000149356455625895444670000003847848856392277141_);}
	.st110{fill:url(#SVGID_00000133512502748871869730000012141401292314265987_);}
	.st111{fill:url(#SVGID_00000056421703567972967040000017419385406788392365_);}
	.st112{fill:url(#SVGID_00000064353501870349452940000014888692374734886578_);}
	.st113{fill:url(#SVGID_00000133515780977298236970000017862128992422898325_);}
	.st114{fill:url(#SVGID_00000171702062997969993160000008382715418058040984_);}
	.st115{fill:url(#SVGID_00000065034014225896392580000005938714647580506292_);}
	.st116{fill:url(#SVGID_00000100359332221803453620000018215930615864785564_);}
	.st117{fill:url(#SVGID_00000166669759086861219930000009317806793351217077_);}
	.st118{fill:url(#SVGID_00000057119705522665203250000005523511431491604925_);}
	.st119{fill:url(#SVGID_00000050643499934597363950000008987302845262290852_);}
	.st120{fill:url(#SVGID_00000148663703721782742710000003876474816231071132_);}
	.st121{fill:#F9A01B;}
	.st122{fill:url(#SVGID_00000060740240794308902830000013411740697080327072_);}
	.st123{fill:url(#SVGID_00000142175103976793411270000008998992475142736280_);}
	.st124{fill:url(#SVGID_00000055673367993963670990000002177544919092614317_);}
	.st125{fill:url(#SVGID_00000051346367546009428630000004299617091705880487_);}
	.st126{fill:url(#SVGID_00000157285043017230391360000006225102611628876178_);}
	.st127{fill:url(#SVGID_00000034067373144140355750000002802205282346041240_);}
	.st128{fill:url(#SVGID_00000183940476124881929470000015263244219725864326_);}
	.st129{fill:url(#SVGID_00000137114674391865655740000000454249548329169817_);}
	.st130{fill:url(#SVGID_00000013156432851184438640000017336984348494020019_);}
	.st131{fill:url(#SVGID_00000056416194923648787390000008675349085853878177_);}
	.st132{fill:#587BBD;}
	.st133{fill:url(#SVGID_00000023996940176858852720000017198122773668689326_);}
	.st134{fill:#3EC0C2;}
	.st135{fill:#F0554D;}
	.st136{fill:#432E80;}
	.st137{fill:url(#SVGID_00000094611200464845222030000014512135711614395023_);}
	.st138{fill:#BC1B8D;}
	.st139{fill:#2A388F;}
	.st140{fill:url(#SVGID_00000051354335772999599020000013892731137045804951_);}
	.st141{fill:#96577F;}
	.st142{fill:#0072BC;}
	.st143{fill:#92278F;}
	.st144{fill:url(#SVGID_00000172427888822174646690000013351703837813470863_);}
	.st145{fill:#FFFFFF;}
	.st146{opacity:0.3;fill:url(#SVGID_00000157273177813170140160000004565530211474328999_);}
	.st147{fill:url(#SVGID_00000147910921721787718460000003318303118205271743_);}
	.st148{fill:url(#SVGID_00000170985057128938929670000004224901345458365338_);}
	.st149{fill:url(#SVGID_00000090999188258775307420000009879854944799310253_);}
	.st150{fill:url(#SVGID_00000177479958458766740540000003161852217663633580_);}
	.st151{fill:url(#SVGID_00000087396989584586988600000008897196538144096174_);}
	.st152{fill:url(#SVGID_00000005946941354733653560000011144137015703963030_);}
	.st153{fill:url(#SVGID_00000132794498268588569670000015641480917963902346_);}
	.st154{fill:url(#SVGID_00000085218752850256922210000002789670605656221851_);}
	.st155{fill:url(#SVGID_00000121972398232672434650000000055096770807837100_);}
	.st156{fill:url(#SVGID_00000096027289849116964500000016446511389936815803_);}
	.st157{fill:url(#SVGID_00000094578165262396941720000014928088277890211487_);}
	.st158{fill:url(#SVGID_00000013159591685024897310000004081967400470689176_);}
	.st159{fill:url(#SVGID_00000051370350862200445780000009061780545825265298_);}
	.st160{fill:url(#SVGID_00000134935647397126670220000003427555916040454550_);}
</style>
<g>
	<linearGradient id="SVGID_1_" gradientUnits="userSpaceOnUse" x1="1.4128" y1="91.822" x2="122.8062" y2="91.822">
		<stop  offset="0" style="stop-color:#0072BC"/>
		<stop  offset="0.4749" style="stop-color:#2E3192"/>
		<stop  offset="1" style="stop-color:#92278F"/>
	</linearGradient>
	<path class="st2" d="M69.99,91.38c-3.76,7.68-6.95,11.63-9.57,11.85c-1.23,0.08-2.17-0.32-2.82-1.21
		c-0.66-0.89-0.98-1.98-0.98-3.26c0-1.11,0.21-2.36,0.63-3.77c-3.3,5.49-6.25,8.24-8.87,8.24c-1.23,0-2.15-0.62-2.79-1.85
		c-0.51-0.98-0.76-2.15-0.76-3.51c0-4.04,1.77-8.2,5.32-12.49c1.14-1.4,2.62-2.58,4.44-3.54c1.82-0.96,3.59-1.43,5.32-1.43
		c2.07,0,3.72,0.68,4.94,2.03c0.3,0.34,0.44,0.68,0.44,1.01c0,0.72-0.38,0.99-1.14,0.82c-0.42-1.52-1.39-2.28-2.92-2.28
		c-1.77,0-3.87,1.25-6.27,3.76c-1.77,1.83-3.32,3.85-4.63,6.06c-1.77,2.98-2.66,5.47-2.66,7.46c0,1.45,0.53,2.17,1.58,2.17
		c2.58,0,5.89-3.9,9.95-11.71c0.84-1.61,1.48-2.65,1.9-3.12c0.68-0.72,1.48-1.04,2.41-0.95c0.21,0,0.63,0.06,1.27,0.19
		c0.63,0.13,1.1,0.15,1.39,0.06c-0.97,0.97-2.13,2.85-3.49,5.64c-1.27,2.62-2.07,4.69-2.41,6.21c-0.17,0.8-0.25,1.52-0.25,2.15
		c0,1.1,0.3,1.65,0.89,1.65c1.94,0.09,4.67-3.48,8.18-10.71c0.21-0.42,0.46-0.64,0.76-0.64c0.21,0,0.32,0.13,0.32,0.38
		C70.18,90.87,70.11,91.12,69.99,91.38z"/>
	
		<linearGradient id="SVGID_00000094590802733937947550000002525840837645589908_" gradientUnits="userSpaceOnUse" x1="1.4128" y1="83.2602" x2="122.8062" y2="83.2602">
		<stop  offset="0" style="stop-color:#0072BC"/>
		<stop  offset="0.4749" style="stop-color:#2E3192"/>
		<stop  offset="1" style="stop-color:#92278F"/>
	</linearGradient>
	<path style="fill:url(#SVGID_00000094590802733937947550000002525840837645589908_);" d="M85.58,71.82
		c-3.68,8.14-8.01,14.5-12.99,19.08c-0.42,1.02-0.87,2.42-1.33,4.2c-0.3,1.1-0.44,2.16-0.44,3.18c0,2.37,0.8,3.56,2.41,3.56
		c1.48,0,3-0.96,4.56-2.88c0.25-0.3,1.2-1.9,2.85-4.81c1.48-2.61,2.37-3.91,2.66-3.91c0.17,0,0.25,0.13,0.25,0.38
		c0,0.13-0.06,0.34-0.19,0.64c-1.69,3.69-3.02,6.2-3.99,7.52c-2.2,2.97-4.67,4.46-7.42,4.46c-2.96,0-4.44-1.54-4.44-4.63
		c0-1.35,0.55-3.98,1.65-7.87c2.2-7.79,5.41-15.26,9.63-22.41c1.99-3.34,4.01-5.01,6.08-5.01c1.48,0,2.22,0.98,2.22,2.93
		C87.1,67.7,86.59,69.57,85.58,71.82z M84.63,70.84c0.68-1.61,1.01-2.96,1.01-4.06c0-0.59-0.15-0.89-0.44-0.89
		c-0.42,0-1.12,0.7-2.09,2.09c-2.83,4.06-6.17,10.99-10.01,20.79C77.65,84.17,81.5,78.19,84.63,70.84z"/>
	
		<linearGradient id="SVGID_00000162322289773306526780000011680176190155376528_" gradientUnits="userSpaceOnUse" x1="1.4128" y1="91.8482" x2="122.8062" y2="91.8482">
		<stop  offset="0" style="stop-color:#0072BC"/>
		<stop  offset="0.4749" style="stop-color:#2E3192"/>
		<stop  offset="1" style="stop-color:#92278F"/>
	</linearGradient>
	<path style="fill:url(#SVGID_00000162322289773306526780000011680176190155376528_);" d="M99.08,91.18
		c-1.77,3.83-3.21,6.45-4.31,7.88c-2.15,2.77-4.75,4.16-7.8,4.16c-1.77,0-3.22-0.57-4.34-1.71c-1.12-1.14-1.7-2.59-1.74-4.36
		c-0.04-3.92,1.58-7.86,4.88-11.82c2.7-3.24,5.49-4.87,8.37-4.87c2.37,0,3.55,1.01,3.55,3.02c0,2.31-1.53,4.62-4.59,6.93
		c-0.85,0.63-2.11,1.25-3.79,1.86c-1.68,0.61-3.03,0.91-4.04,0.91c-0.55,1.39-0.83,2.9-0.83,4.54c0,2.73,1,4.09,2.99,4.09
		c3.86,0,7.36-3.57,10.5-10.72c0.25-0.58,0.59-0.88,1.02-0.88c0.21,0,0.32,0.13,0.32,0.38C99.27,90.7,99.2,90.88,99.08,91.18z
		 M95.97,83.26c0-0.93-0.34-1.39-1.01-1.39c-1.18,0-2.98,1.46-5.39,4.37c-1.27,1.56-2.54,3.55-3.8,5.96c2.2,0,4.45-0.95,6.75-2.85
		C94.82,87.44,95.97,85.42,95.97,83.26z"/>
	
		<linearGradient id="SVGID_00000096760145780677944430000007569069377444469674_" gradientUnits="userSpaceOnUse" x1="1.4128" y1="83.9893" x2="122.8062" y2="83.9893">
		<stop  offset="0" style="stop-color:#0072BC"/>
		<stop  offset="0.4749" style="stop-color:#2E3192"/>
		<stop  offset="1" style="stop-color:#92278F"/>
	</linearGradient>
	<path style="fill:url(#SVGID_00000096760145780677944430000007569069377444469674_);" d="M113.72,78.95c0.29,0,0.44,0.19,0.44,0.57
		c0,0.55-0.19,0.82-0.57,0.82h-3.68c-2.28,3.93-5.09,7.42-8.43,10.46c-0.34,0.89-0.82,3.04-1.46,6.46
		c-0.13,0.68-0.19,1.18-0.19,1.52c0,1.69,0.7,2.54,2.09,2.54c2.45,0,5.39-3.49,8.81-10.46c0.21-0.46,0.46-0.7,0.76-0.7
		c0.17,0,0.25,0.13,0.25,0.38c0,0.21-0.06,0.44-0.19,0.7c-2.32,4.99-4.37,8.32-6.15,10.01c-1.23,1.18-2.66,1.77-4.31,1.77
		c-1.31,0-2.39-0.43-3.23-1.3c-0.85-0.87-1.27-2.14-1.27-3.83c0-3.68,1.67-9.53,5.01-17.56h-3.3c-0.3,0-0.44-0.21-0.44-0.63
		c0-0.51,0.19-0.76,0.57-0.76h3.8c1.44-3.13,2.98-6.13,4.63-9c1.9-3.34,3.89-5.01,5.96-5.01c1.44,0,2.15,0.95,2.15,2.85
		c0,2.2-1.44,5.92-4.31,11.15H113.72z M108.46,80.34h-2.98c-0.63,1.52-1.77,4.33-3.42,8.43C104.29,86.54,106.43,83.73,108.46,80.34z
		 M112.45,72.49c0.68-1.56,1.01-2.94,1.01-4.12c0-0.68-0.15-1.01-0.44-1.01c-0.51,0-1.31,0.78-2.41,2.35
		c-0.72,1.01-2.22,4.1-4.5,9.25h3.17C110.34,77.05,111.39,74.89,112.45,72.49z"/>
	
		<linearGradient id="SVGID_00000096051189941753956030000017340243343171326868_" gradientUnits="userSpaceOnUse" x1="1.4128" y1="83.9893" x2="122.8062" y2="83.9893">
		<stop  offset="0" style="stop-color:#0072BC"/>
		<stop  offset="0.4749" style="stop-color:#2E3192"/>
		<stop  offset="1" style="stop-color:#92278F"/>
	</linearGradient>
	<path style="fill:url(#SVGID_00000096051189941753956030000017340243343171326868_);" d="M126.2,78.95c0.29,0,0.44,0.19,0.44,0.57
		c0,0.55-0.19,0.82-0.57,0.82h-3.68c-2.28,3.93-5.09,7.42-8.43,10.46c-0.34,0.89-0.82,3.04-1.46,6.46
		c-0.13,0.68-0.19,1.18-0.19,1.52c0,1.69,0.7,2.54,2.09,2.54c2.45,0,5.39-3.49,8.81-10.46c0.21-0.46,0.46-0.7,0.76-0.7
		c0.17,0,0.25,0.13,0.25,0.38c0,0.21-0.06,0.44-0.19,0.7c-2.32,4.99-4.37,8.32-6.15,10.01c-1.23,1.18-2.66,1.77-4.31,1.77
		c-1.31,0-2.39-0.43-3.23-1.3c-0.85-0.87-1.27-2.14-1.27-3.83c0-3.68,1.67-9.53,5.01-17.56h-3.3c-0.3,0-0.44-0.21-0.44-0.63
		c0-0.51,0.19-0.76,0.57-0.76h3.8c1.44-3.13,2.98-6.13,4.63-9c1.9-3.34,3.89-5.01,5.96-5.01c1.44,0,2.15,0.95,2.15,2.85
		c0,2.2-1.44,5.92-4.31,11.15H126.2z M120.94,80.34h-2.98c-0.63,1.52-1.77,4.33-3.42,8.43C116.78,86.54,118.91,83.73,120.94,80.34z
		 M124.93,72.49c0.68-1.56,1.01-2.94,1.01-4.12c0-0.68-0.15-1.01-0.44-1.01c-0.51,0-1.31,0.78-2.41,2.35
		c-0.72,1.01-2.22,4.1-4.5,9.25h3.17C122.82,77.05,123.88,74.89,124.93,72.49z"/>
	<path class="st90" d="M145.15,91.18c-1.44,3.34-2.62,5.66-3.55,6.97c-1.99,2.87-4.21,4.31-6.65,4.31c-1.44,0-2.64-0.53-3.61-1.58
		c-1.94,1.48-3.78,2.2-5.51,2.15c-2.96-0.08-4.44-1.97-4.44-5.66c0-1.86,0.44-3.83,1.33-5.91c1.14-2.63,2.73-4.96,4.75-6.99
		c2.45-2.5,4.88-3.73,7.29-3.69c2.96,0.08,4.44,1.95,4.44,5.59c0,4.79-2.22,9.28-6.65,13.48c0.55,0.98,1.56,1.46,3.04,1.46
		c1.9,0,3.82-1.54,5.77-4.63c0.63-1.01,1.65-3.06,3.04-6.15c0.13-0.21,0.27-0.32,0.44-0.32c0.29,0,0.44,0.17,0.44,0.51
		C145.28,90.82,145.24,90.97,145.15,91.18z M135.4,82.75c-1.56,0-3.22,1.06-4.98,3.19c-1.3,1.53-2.4,3.28-3.28,5.23
		c-1.47,3.19-2.21,5.74-2.21,7.66c0,1.87,0.71,2.81,2.13,2.81c1.09,0,2.28-0.55,3.57-1.65c-0.68-1.06-1.01-2.09-1.01-3.11
		c0.04-1.82,0.78-2.73,2.22-2.73c1.27,0,1.9,0.63,1.9,1.9c0,0.25,0,0.49,0,0.7c0.7-0.98,1.33-2.13,1.9-3.45
		c1.31-2.94,1.96-5.41,1.96-7.42C137.61,83.8,136.87,82.75,135.4,82.75z"/>
	<g>
		
			<linearGradient id="SVGID_00000119815852192709373180000011417388186132875155_" gradientUnits="userSpaceOnUse" x1="1.4128" y1="57.0042" x2="100.8425" y2="57.0042">
			<stop  offset="0" style="stop-color:#0072BC"/>
			<stop  offset="0.4749" style="stop-color:#2E3192"/>
			<stop  offset="1" style="stop-color:#92278F"/>
		</linearGradient>
		<path style="fill:url(#SVGID_00000119815852192709373180000011417388186132875155_);" d="M53.27,57L53.27,57
			C53.28,57,53.27,57.01,53.27,57C53.27,57.01,53.27,57,53.27,57z"/>
		
			<linearGradient id="SVGID_00000065032943689282273400000001970154553732001724_" gradientUnits="userSpaceOnUse" x1="1.4128" y1="57.0042" x2="100.8425" y2="57.0042">
			<stop  offset="0" style="stop-color:#0072BC"/>
			<stop  offset="0.4749" style="stop-color:#2E3192"/>
			<stop  offset="1" style="stop-color:#92278F"/>
		</linearGradient>
		<path style="fill:url(#SVGID_00000065032943689282273400000001970154553732001724_);" d="M53.27,57C53.27,57,53.27,57.01,53.27,57
			C53.27,57.01,53.28,57,53.27,57L53.27,57z"/>
		
			<linearGradient id="SVGID_00000067223217198003067940000010742655033911903624_" gradientUnits="userSpaceOnUse" x1="1.4128" y1="56.3995" x2="122.8062" y2="56.3995">
			<stop  offset="0" style="stop-color:#0072BC"/>
			<stop  offset="0.4749" style="stop-color:#2E3192"/>
			<stop  offset="1" style="stop-color:#92278F"/>
		</linearGradient>
		<path style="fill:url(#SVGID_00000067223217198003067940000010742655033911903624_);" d="M42.77,56.43
			c0.02-0.02,0.04-0.04,0.06-0.06c-0.01,0-0.01,0-0.02,0C42.8,56.39,42.78,56.41,42.77,56.43z"/>
		
			<linearGradient id="SVGID_00000181802973268632689420000009816858992648969089_" gradientUnits="userSpaceOnUse" x1="1.4128" y1="71.7781" x2="122.8062" y2="71.7781">
			<stop  offset="0" style="stop-color:#0072BC"/>
			<stop  offset="0.4749" style="stop-color:#2E3192"/>
			<stop  offset="1" style="stop-color:#92278F"/>
		</linearGradient>
		<path style="fill:url(#SVGID_00000181802973268632689420000009816858992648969089_);" d="M87.94,46.9
			c-0.78-1.86-2.54-3.37-4.41-4.46c-4.76-2.8-10.54-3.81-16.21-4.1c-12.27-0.64-24.62,1.84-36.1,6.07
			c-7.55,2.78-14.93,6.43-20.52,11.91c-2.73,2.68-5.03,5.87-5.76,9.46c-0.73,3.59,0.38,7.62,3.46,9.87
			c5.87,4.28,14.28,0.82,19.78-2.46c3.22-1.92,6.26-4.23,8.26-7.24c0.43-0.64,0.82-1.39,0.61-2.11c-2.47,2.1-4.21,4.76-6.78,6.79
			c-2.66,2.11-5.72,3.83-9.09,4.74c-2.21,0.59-4.61,0.83-6.79,0.19c-2.5-0.73-4.51-2.56-5.69-4.72c-0.97-1.78-1.43-3.82-1.13-5.8
			c0.37-2.5,1.88-4.75,3.67-6.67c3.89-4.18,9.11-7.1,14.41-9.62c8.46-4.03,17.46-7.25,26.83-8.6c5.94-0.85,12.03-0.92,17.94,0
			c4.81,0.76,12.46,2.09,14.99,6.47c1.24,2.14,0.9,4.84-0.24,7.05c-3.04,5.94-10,11.04-15.78,14.61c-3.12,1.93-6.46,3.55-9.93,4.84
			c-1.77,0.66-3.59,1.23-5.42,1.71c-0.9,0.23-1.81,0.45-2.72,0.64c-0.86,0.18-1.95,0.54-2.82,0.48c0.21-1.39,1.01-2.9,1.47-4.25
			c3.78,0.23,8.69-0.43,11.41-5.59c0.27-0.5,0.99-2.65,0.14-3.84c-2.27-3.18-17.33-1.2-20.92,6.29c-0.22,0.46-2.25,4.85,0.22,7.5
			c1.28,1.38,3.21,1.66,4.14,1.74c-3.45,10.07-6.88,24.37-18.74,25.76c-7.51-0.2-4.92-11.42,2.33-8.36
			c0.98,0.36,1.03-0.56,0.08-0.76c-4.58-1.63-10.49,0.49-9.92,5.61c0.44,3.89,4.04,5.64,8.51,5.2c7.1-1.14,11.66-6,14.52-11.83
			c1.43-2.91,2.49-5.96,3.56-8.99c0.52-1.46,1.03-2.93,1.59-4.38c0.2-0.51,0.39-1.51,0.85-1.86c0.64-0.47,2.57-0.52,3.39-0.72
			c11.72-2.82,22.57-8.87,30.73-17.19c2.4-2.45,4.61-5.14,5.83-8.24c0.47-1.18,0.79-2.44,0.64-3.69
			C88.26,47.85,88.13,47.37,87.94,46.9z M58.8,63.7c1.25,2.05-4.12,7.58-8.34,6.46c0.92-2.2,1.85-4.39,2.77-6.59
			C56.99,62.74,58.38,63.06,58.8,63.7z M45.59,75.97c0.02,0,0.04,0,0.05,0C45.62,75.97,45.6,75.98,45.59,75.97
			C45.58,75.98,45.59,75.97,45.59,75.97c-0.59,0.01-2.58-0.03-3.8-1.33c-1.96-2.1-0.11-5.56,0.13-6c2.23-4.16,8.03-4.78,8.66-4.84
			c-0.99,2.09-1.98,4.32-2.93,6.67C46.89,72.35,46.21,74.19,45.59,75.97z"/>
		
			<linearGradient id="SVGID_00000047041424228680475580000003675258740730241428_" gradientUnits="userSpaceOnUse" x1="1.4128" y1="73.314" x2="122.8062" y2="73.314">
			<stop  offset="0" style="stop-color:#0072BC"/>
			<stop  offset="0.4749" style="stop-color:#2E3192"/>
			<stop  offset="1" style="stop-color:#92278F"/>
		</linearGradient>
		<path style="fill:url(#SVGID_00000047041424228680475580000003675258740730241428_);" d="M46.02,73.31
			C46.02,73.31,46.02,73.32,46.02,73.31c0.02,0.01,0.03,0,0.05,0C46.06,73.31,46.04,73.31,46.02,73.31z"/>
		
			<linearGradient id="SVGID_00000170991018806396576280000009907544280024894893_" gradientUnits="userSpaceOnUse" x1="1.4128" y1="68.1704" x2="122.8062" y2="68.1704">
			<stop  offset="0" style="stop-color:#0072BC"/>
			<stop  offset="0.4749" style="stop-color:#2E3192"/>
			<stop  offset="1" style="stop-color:#92278F"/>
		</linearGradient>
		<path style="fill:url(#SVGID_00000170991018806396576280000009907544280024894893_);" d="M50.46,68.62c0.09-0.31,0.19-0.65,0.3-1
			c-0.61,0.2-1.26,0.35-1.96,0.46c0.16,0.09,0.75,0.42,1.63,0.63c0.01-0.02,0.02-0.05,0.02-0.08
			C50.46,68.64,50.46,68.63,50.46,68.62z"/>
	</g>
	<g>
		
			<linearGradient id="SVGID_00000055689401017624868060000008957182172295394484_" gradientUnits="userSpaceOnUse" x1="1.4128" y1="53.7086" x2="122.8062" y2="53.7086">
			<stop  offset="0" style="stop-color:#0072BC"/>
			<stop  offset="0.4749" style="stop-color:#2E3192"/>
			<stop  offset="1" style="stop-color:#92278F"/>
		</linearGradient>
		<path style="fill:url(#SVGID_00000055689401017624868060000008957182172295394484_);" d="M28,52.02c-0.55-1-2.37-1.06-4.06-0.13
			c-1.69,0.93-2.61,2.5-2.05,3.5c0.55,1,2.37,1.06,4.06,0.13C27.63,54.59,28.55,53.02,28,52.02z"/>
		
			<linearGradient id="SVGID_00000006680707645896392620000016596905120310174887_" gradientUnits="userSpaceOnUse" x1="1.4128" y1="46.8178" x2="122.8062" y2="46.8178">
			<stop  offset="0" style="stop-color:#0072BC"/>
			<stop  offset="0.4749" style="stop-color:#2E3192"/>
			<stop  offset="1" style="stop-color:#92278F"/>
		</linearGradient>
		<path style="fill:url(#SVGID_00000006680707645896392620000016596905120310174887_);" d="M43.86,46.02
			c-0.26-1.11-1.99-1.66-3.87-1.22c-1.88,0.44-3.18,1.7-2.92,2.82c0.26,1.11,1.99,1.66,3.87,1.22
			C42.81,48.39,44.12,47.13,43.86,46.02z"/>
		
			<linearGradient id="SVGID_00000097491003835162348800000003329985244307537047_" gradientUnits="userSpaceOnUse" x1="1.4128" y1="44.2994" x2="122.8062" y2="44.2994">
			<stop  offset="0" style="stop-color:#0072BC"/>
			<stop  offset="0.4749" style="stop-color:#2E3192"/>
			<stop  offset="1" style="stop-color:#92278F"/>
		</linearGradient>
		<path style="fill:url(#SVGID_00000097491003835162348800000003329985244307537047_);" d="M60.93,44.3c0-1.14-1.56-2.07-3.49-2.07
			c-1.93,0-3.49,0.93-3.49,2.07c0,1.14,1.56,2.07,3.49,2.07C59.37,46.37,60.93,45.44,60.93,44.3z"/>
	</g>
	<rect x="88.28" y="107.24" class="st4" width="50.08" height="4.52"/>
	<text transform="matrix(1 0 0 1 88.276 110.9311)" class="st100 st101">Event Management</text>
</g>
</svg>
