<?xml version="1.0" encoding="utf-8"?>
<!-- Generator: Adobe Illustrator 26.0.0, SVG Export Plug-In . SVG Version: 6.00 Build 0)  -->
<svg version="1.1" id="Layer_1" xmlns="http://www.w3.org/2000/svg" xmlns:xlink="http://www.w3.org/1999/xlink" x="0px" y="0px"
	 viewBox="0 0 2780.57 1433.14" enable-background="new 0 0 2780.57 1433.14" xml:space="preserve">
<g>
	<linearGradient id="SVGID_1_" gradientUnits="userSpaceOnUse" x1="48.4661" y1="1009.0413" x2="2190.8462" y2="1009.0413">
		<stop  offset="0" style="stop-color:#0072BC"/>
		<stop  offset="0.4749" style="stop-color:#2E3192"/>
		<stop  offset="1" style="stop-color:#92278F"/>
	</linearGradient>
	<path fill="url(#SVGID_1_)" d="M1258.67,1001.22c-66.38,135.62-122.67,205.32-168.9,209.06c-21.64,1.49-38.22-5.64-49.77-21.42
		c-11.57-15.77-17.34-34.94-17.34-57.49c0-19.54,3.72-41.7,11.19-66.5c-58.16,96.95-110.37,145.41-156.6,145.41
		c-21.64,0-38.03-10.87-49.22-32.61c-8.95-17.25-13.42-37.87-13.42-61.87c0-71.24,31.32-144.71,93.96-220.46
		c20.13-24.75,46.23-45.55,78.3-62.43c32.05-16.87,63.37-25.31,93.96-25.31c36.53,0,65.61,11.93,87.24,35.79
		c5.21,5.98,7.83,11.94,7.83,17.9c0,12.69-6.71,17.53-20.13,14.54c-7.46-26.85-24.61-40.27-51.45-40.27
		c-31.32,0-68.23,22.15-110.73,66.43c-31.32,32.28-58.55,67.94-81.65,106.96c-31.32,52.54-46.98,96.46-46.98,131.72
		c0,25.52,9.31,38.27,27.96,38.27c45.48,0,104.02-68.88,175.61-206.63c14.91-28.45,26.09-46.79,33.55-55.04
		c11.92-12.72,26.09-18.33,42.51-16.85c3.72,0,11.18,1.12,22.37,3.36c11.18,2.23,19.38,2.62,24.61,1.12
		c-17.16,17.16-37.67,50.33-61.52,99.55c-22.37,46.24-36.54,82.77-42.5,109.62c-2.99,14.17-4.48,26.84-4.48,38.03
		c0,19.4,5.21,29.08,15.66,29.08c34.29,1.51,82.39-61.48,144.29-188.96c3.72-7.5,8.2-11.25,13.42-11.25c3.72,0,5.59,2.25,5.59,6.74
		C1262.03,992.24,1260.91,996.73,1258.67,1001.22z"/>
	
		<linearGradient id="SVGID_00000085939393494156787160000010661430922187430315_" gradientUnits="userSpaceOnUse" x1="48.4661" y1="857.9417" x2="2190.8462" y2="857.9417">
		<stop  offset="0" style="stop-color:#0072BC"/>
		<stop  offset="0.4749" style="stop-color:#2E3192"/>
		<stop  offset="1" style="stop-color:#92278F"/>
	</linearGradient>
	<path fill="url(#SVGID_00000085939393494156787160000010661430922187430315_)" d="M1533.82,655.98
		c-64.88,143.66-141.32,255.88-229.3,336.68c-7.46,17.97-15.29,42.64-23.49,74.07c-5.23,19.46-7.83,38.16-7.83,56.1
		c0,41.91,14.16,62.84,42.5,62.84c26.1,0,52.94-16.95,80.54-50.89c4.47-5.28,21.25-33.54,50.33-84.81
		c26.09-45.98,41.75-68.98,46.97-68.98c2.97,0,4.48,2.25,4.48,6.74c0,2.26-1.12,5.99-3.36,11.24
		c-29.83,65.19-53.32,109.41-70.47,132.63c-38.78,52.46-82.4,78.68-130.87,78.68c-52.2,0-78.3-27.24-78.3-81.77
		c0-23.91,9.68-70.21,29.08-138.93c38.76-137.43,95.44-269.25,170.02-395.47c35.04-59,70.83-88.5,107.38-88.5
		c26.09,0,39.15,17.22,39.15,51.63C1560.66,583.41,1551.71,616.34,1533.82,655.98z M1517.04,638.71
		c11.92-28.33,17.9-52.19,17.9-71.58c0-10.43-2.62-15.66-7.83-15.66c-7.46,0-19.76,12.3-36.91,36.91
		c-49.97,71.59-108.88,193.89-176.73,366.88C1394,873.99,1461.84,768.46,1517.04,638.71z"/>
	
		<linearGradient id="SVGID_00000056396912938040882320000007832018496916864407_" gradientUnits="userSpaceOnUse" x1="48.4661" y1="1009.5046" x2="2190.8462" y2="1009.5046">
		<stop  offset="0" style="stop-color:#0072BC"/>
		<stop  offset="0.4749" style="stop-color:#2E3192"/>
		<stop  offset="1" style="stop-color:#92278F"/>
	</linearGradient>
	<path fill="url(#SVGID_00000056396912938040882320000007832018496916864407_)" d="M1772.05,997.67
		c-31.31,67.53-56.67,113.92-76.06,139.15c-38.03,48.97-83.89,73.45-137.58,73.45c-31.32,0-56.87-10.03-76.62-30.11
		c-19.76-20.06-30.03-45.72-30.76-76.97c-0.75-69.14,27.96-138.68,86.12-208.59c47.71-57.26,96.93-85.88,147.65-85.88
		c41.76,0,62.64,17.79,62.64,53.37c0,40.77-26.99,81.55-80.92,122.31c-15,11.13-37.28,22.07-66.89,32.82
		c-29.6,10.74-53.39,16.11-71.35,16.11c-9.75,24.47-14.61,51.15-14.61,80.06c0,48.19,17.6,72.27,52.8,72.27
		c68.15,0,129.93-63.06,185.35-189.2c4.49-10.31,10.49-15.48,17.99-15.48c3.74,0,5.61,2.23,5.61,6.67
		C1775.41,989.16,1774.29,992.5,1772.05,997.67z M1717.25,857.94c0-16.4-5.98-24.61-17.9-24.61c-20.89,0-52.57,25.73-95.08,77.18
		c-22.37,27.6-44.74,62.64-67.11,105.14c38.76,0,78.47-16.78,119.13-50.33C1696.91,931.77,1717.25,895.97,1717.25,857.94z"/>
	
		<linearGradient id="SVGID_00000003784537550110270320000001181378210975841713_" gradientUnits="userSpaceOnUse" x1="48.4661" y1="870.8076" x2="2190.8462" y2="870.8076">
		<stop  offset="0" style="stop-color:#0072BC"/>
		<stop  offset="0.4749" style="stop-color:#2E3192"/>
		<stop  offset="1" style="stop-color:#92278F"/>
	</linearGradient>
	<path fill="url(#SVGID_00000003784537550110270320000001181378210975841713_)" d="M2030.42,781.88c5.21,0,7.83,3.35,7.83,10.06
		c0,9.7-3.35,14.54-10.06,14.54h-64.88c-40.26,69.35-89.86,130.87-148.76,184.56c-5.98,15.66-14.54,53.69-25.73,114.09
		c-2.24,11.94-3.36,20.88-3.36,26.85c0,29.83,12.3,44.74,36.91,44.74c43.24,0,95.08-61.52,155.48-184.56
		c3.72-8.2,8.2-12.3,13.42-12.3c2.97,0,4.47,2.23,4.47,6.71c0,3.74-1.12,7.83-3.35,12.3c-41.02,87.99-77.18,146.91-108.5,176.73
		c-21.64,20.88-46.98,31.32-76.06,31.32c-23.12,0-42.14-7.64-57.05-22.93c-14.93-15.28-22.37-37.84-22.37-67.67
		c0-64.88,29.45-168.15,88.36-309.83h-58.16c-5.22,0-7.83-3.72-7.83-11.18c0-8.95,3.35-13.42,10.06-13.42h67.11
		c25.34-55.18,52.57-108.11,81.65-158.83c33.55-58.9,68.59-88.36,105.14-88.36c25.34,0,38.03,16.78,38.03,50.33
		c0,38.78-25.36,104.41-76.06,196.86H2030.42z M1937.58,806.49h-52.57c-11.19,26.85-31.32,76.45-60.4,148.77
		C1864.12,915.74,1901.79,866.16,1937.58,806.49z M2008.05,667.79c11.92-27.58,17.9-51.82,17.9-72.71c0-11.92-2.62-17.9-7.83-17.9
		c-8.95,0-23.12,13.81-42.51,41.39c-12.69,17.9-39.15,72.34-79.41,163.3h55.93C1970.75,748.33,1989.4,710.3,2008.05,667.79z"/>
	
		<linearGradient id="SVGID_00000124142088296688408770000002585577929619749267_" gradientUnits="userSpaceOnUse" x1="48.4661" y1="870.8076" x2="2190.8462" y2="870.8076">
		<stop  offset="0" style="stop-color:#0072BC"/>
		<stop  offset="0.4749" style="stop-color:#2E3192"/>
		<stop  offset="1" style="stop-color:#92278F"/>
	</linearGradient>
	<path fill="url(#SVGID_00000124142088296688408770000002585577929619749267_)" d="M2250.76,781.88c5.21,0,7.83,3.35,7.83,10.06
		c0,9.7-3.35,14.54-10.06,14.54h-64.88c-40.26,69.35-89.86,130.87-148.76,184.56c-5.98,15.66-14.54,53.69-25.73,114.09
		c-2.24,11.94-3.36,20.88-3.36,26.85c0,29.83,12.3,44.74,36.91,44.74c43.24,0,95.08-61.52,155.48-184.56
		c3.72-8.2,8.2-12.3,13.42-12.3c2.97,0,4.47,2.23,4.47,6.71c0,3.74-1.12,7.83-3.35,12.3c-41.02,87.99-77.18,146.91-108.5,176.73
		c-21.64,20.88-46.98,31.32-76.06,31.32c-23.12,0-42.14-7.64-57.05-22.93c-14.93-15.28-22.37-37.84-22.37-67.67
		c0-64.88,29.45-168.15,88.36-309.83h-58.16c-5.22,0-7.83-3.72-7.83-11.18c0-8.95,3.35-13.42,10.06-13.42h67.11
		c25.34-55.18,52.57-108.11,81.65-158.83c33.55-58.9,68.59-88.36,105.14-88.36c25.34,0,38.03,16.78,38.03,50.33
		c0,38.78-25.36,104.41-76.06,196.86H2250.76z M2157.92,806.49h-52.57c-11.19,26.85-31.32,76.45-60.4,148.77
		C2084.46,915.74,2122.13,866.16,2157.92,806.49z M2228.39,667.79c11.92-27.58,17.9-51.82,17.9-72.71c0-11.92-2.62-17.9-7.83-17.9
		c-8.95,0-23.12,13.81-42.51,41.39c-12.69,17.9-39.15,72.34-79.41,163.3h55.93C2191.09,748.33,2209.74,710.3,2228.39,667.79z"/>
	<path fill="#F6871F" d="M2585.2,997.76c-25.36,58.91-46.25,99.93-62.64,123.04c-35.06,50.71-74.21,76.06-117.45,76.06
		c-25.36,0-46.61-9.32-63.76-27.97c-34.31,26.11-66.75,38.76-97.31,38.03c-52.2-1.48-78.29-34.76-78.29-99.83
		c0-32.89,7.83-67.67,23.49-104.32c20.13-46.37,48.09-87.49,83.89-123.39c43.24-44.11,86.12-65.8,128.63-65.07
		c52.19,1.5,78.29,34.41,78.29,98.73c0,84.54-39.15,163.83-117.44,237.86c9.68,17.21,27.58,25.81,53.69,25.81
		c33.56,0,67.48-27.22,101.79-81.65c11.19-17.9,29.08-54.06,53.69-108.5c2.23-3.72,4.84-5.59,7.83-5.59c5.21,0,7.83,2.98,7.83,8.95
		C2587.43,991.44,2586.68,994.04,2585.2,997.76z M2413.13,848.99c-27.45,0-56.76,18.77-87.92,56.31c-23,27.02-42.3,57.8-57.87,92.33
		c-25.97,56.31-38.95,101.37-38.95,135.14c0,33.03,12.53,49.55,37.61,49.55c19.17,0,40.19-9.68,63.06-29.08
		c-11.94-18.63-17.9-36.91-17.9-54.81c0.73-32.05,13.79-48.09,39.15-48.09c22.37,0,33.55,11.18,33.55,33.55c0,4.48,0,8.58,0,12.3
		c12.27-17.3,23.45-37.61,33.57-60.96c23.11-51.91,34.66-95.55,34.66-130.92C2452.09,867.43,2439.1,848.99,2413.13,848.99z"/>
	<g>
		
			<linearGradient id="SVGID_00000010293907795257135070000009048673828767831743_" gradientUnits="userSpaceOnUse" x1="48.4661" y1="394.5683" x2="1803.2251" y2="394.5683">
			<stop  offset="0" style="stop-color:#0072BC"/>
			<stop  offset="0.4749" style="stop-color:#2E3192"/>
			<stop  offset="1" style="stop-color:#92278F"/>
		</linearGradient>
		<path fill="url(#SVGID_00000010293907795257135070000009048673828767831743_)" d="M963.72,394.51l0.11,0.02
			c-0.07,0.03-0.15,0.06-0.22,0.09C963.65,394.59,963.69,394.55,963.72,394.51z"/>
		
			<linearGradient id="SVGID_00000151519867262309305020000004085311766359692427_" gradientUnits="userSpaceOnUse" x1="48.4661" y1="394.5683" x2="1803.2251" y2="394.5683">
			<stop  offset="0" style="stop-color:#0072BC"/>
			<stop  offset="0.4749" style="stop-color:#2E3192"/>
			<stop  offset="1" style="stop-color:#92278F"/>
		</linearGradient>
		<path fill="url(#SVGID_00000151519867262309305020000004085311766359692427_)" d="M963.72,394.51c-0.03,0.04-0.07,0.08-0.11,0.12
			c0.07-0.03,0.15-0.06,0.22-0.09L963.72,394.51z"/>
		
			<linearGradient id="SVGID_00000140732994946934141320000018091370867267810195_" gradientUnits="userSpaceOnUse" x1="48.4661" y1="383.8976" x2="2190.8462" y2="383.8976">
			<stop  offset="0" style="stop-color:#0072BC"/>
			<stop  offset="0.4749" style="stop-color:#2E3192"/>
			<stop  offset="1" style="stop-color:#92278F"/>
		</linearGradient>
		<path fill="url(#SVGID_00000140732994946934141320000018091370867267810195_)" d="M778.36,384.39c0.35-0.33,0.71-0.66,1.06-0.99
			c-0.1,0.02-0.18,0.01-0.28,0.01C778.89,383.75,778.6,384.06,778.36,384.39z"/>
		
			<linearGradient id="SVGID_00000012449328106816406770000005066631127292034691_" gradientUnits="userSpaceOnUse" x1="48.4661" y1="655.3018" x2="2190.8462" y2="655.3018">
			<stop  offset="0" style="stop-color:#0072BC"/>
			<stop  offset="0.4749" style="stop-color:#2E3192"/>
			<stop  offset="1" style="stop-color:#92278F"/>
		</linearGradient>
		<path fill="url(#SVGID_00000012449328106816406770000005066631127292034691_)" d="M1575.45,216.32
			c-13.77-32.9-44.91-59.42-77.85-78.76c-84.07-49.38-185.94-67.2-286.01-72.39C995.04,53.94,777.04,97.61,574.45,172.26
			C441.13,221.39,310.91,285.7,212.35,382.42c-48.11,47.21-88.84,103.54-101.67,166.96s6.7,134.53,61.06,174.12
			c103.66,75.49,252.07,14.5,349.03-43.34c56.74-33.85,110.5-74.6,145.85-127.73c7.53-11.31,14.39-24.57,10.79-37.29
			c-43.62,37.13-74.37,84.06-119.6,119.84c-47.02,37.21-100.9,67.59-160.48,83.59c-39.06,10.49-81.32,14.6-119.82,3.41
			c-44.2-12.85-79.6-45.18-100.39-83.32c-17.09-31.35-25.18-67.36-19.99-102.4c6.52-44.04,33.2-83.78,64.73-117.69
			c68.59-73.79,160.78-125.32,254.29-169.82c149.38-71.1,308.09-128.04,473.57-151.77c104.86-15.04,212.33-16.3,316.61,0.08
			c84.97,13.35,219.81,36.83,264.58,114.24c21.84,37.76,15.85,85.36-4.21,124.5c-53.74,104.83-176.56,194.83-278.51,257.78
			c-55.04,33.99-113.92,62.62-175.29,85.34c-31.32,11.6-63.29,21.65-95.73,30.1c-15.89,4.14-31.89,7.88-47.98,11.24
			c-15.12,3.15-34.37,9.52-49.69,8.49c3.74-24.47,17.87-51.09,25.95-75.05c66.66,4.08,153.33-7.65,201.36-98.64
			c4.68-8.86,17.47-46.76,2.46-67.76c-40.09-56.07-305.84-21.11-369.14,110.97c-3.87,8.07-39.68,85.62,3.87,132.31
			c22.64,24.28,56.64,29.38,73.08,30.71c-60.91,177.72-121.42,430.02-330.78,454.68c-132.52-3.52-86.78-201.51,41.06-147.47
			c17.31,6.39,18.19-9.86,1.41-13.39c-80.84-28.84-185.05,8.66-175.13,99.07c7.69,68.67,71.36,99.47,150.12,91.85
			c125.38-20.13,205.82-105.96,256.21-208.71c25.21-51.41,43.89-105.2,62.75-158.73c9.1-25.84,18.11-51.72,28.06-77.31
			c3.51-9.02,6.84-26.67,15.05-32.78c11.23-8.36,45.31-9.24,59.77-12.73c206.9-49.85,398.28-156.55,542.36-303.42
			c42.41-43.23,81.39-90.77,102.97-145.42c8.24-20.86,13.89-43.1,11.32-65.04C1581.2,233,1578.86,224.47,1575.45,216.32z
			 M1061.2,512.74c22.01,36.16-72.74,133.85-147.13,113.95c16.32-38.76,32.62-77.53,48.94-116.31
			C1029.36,495.71,1053.85,501.45,1061.2,512.74z M828.05,729.32c0.32-0.02,0.62-0.03,0.92-0.04c-0.31,0.07-0.64,0.12-0.97,0.19
			C828.02,729.42,828.04,729.37,828.05,729.32c-10.4,0.14-45.52-0.57-67-23.54c-34.64-37.07-1.97-98.05,2.26-105.97
			c39.35-73.46,141.66-84.42,152.87-85.47c-17.55,36.95-34.9,76.21-51.64,117.71C851.09,665.43,838.97,697.91,828.05,729.32z"/>
		
			<linearGradient id="SVGID_00000078748411742664072980000001004847508870604473_" gradientUnits="userSpaceOnUse" x1="48.4661" y1="682.4086" x2="2190.8462" y2="682.4086">
			<stop  offset="0" style="stop-color:#0072BC"/>
			<stop  offset="0.4749" style="stop-color:#2E3192"/>
			<stop  offset="1" style="stop-color:#92278F"/>
		</linearGradient>
		<path fill="url(#SVGID_00000078748411742664072980000001004847508870604473_)" d="M835.77,682.34c-0.01,0.04-0.04,0.1-0.05,0.16
			c0.33-0.07,0.66-0.12,0.97-0.19C836.39,682.32,836.09,682.33,835.77,682.34z"/>
		
			<linearGradient id="SVGID_00000080907595945809660270000006173970794173799608_" gradientUnits="userSpaceOnUse" x1="48.4661" y1="591.6332" x2="2190.8462" y2="591.6332">
			<stop  offset="0" style="stop-color:#0072BC"/>
			<stop  offset="0.4749" style="stop-color:#2E3192"/>
			<stop  offset="1" style="stop-color:#92278F"/>
		</linearGradient>
		<path fill="url(#SVGID_00000080907595945809660270000006173970794173799608_)" d="M914.12,599.58c1.66-5.54,3.43-11.42,5.3-17.58
			c-10.76,3.48-22.32,6.26-34.56,8.16c2.81,1.63,13.2,7.46,28.75,11.11c0.13-0.44,0.27-0.9,0.4-1.33
			C914.04,599.85,914.08,599.73,914.12,599.58z"/>
	</g>
	<g>
		
			<linearGradient id="SVGID_00000124853815996448498790000002536045610269089956_" gradientUnits="userSpaceOnUse" x1="48.4661" y1="336.407" x2="2190.8462" y2="336.407">
			<stop  offset="0" style="stop-color:#0072BC"/>
			<stop  offset="0.4749" style="stop-color:#2E3192"/>
			<stop  offset="1" style="stop-color:#92278F"/>
		</linearGradient>
		<path fill="url(#SVGID_00000124853815996448498790000002536045610269089956_)" d="M517.68,306.62
			c-9.77-17.68-41.82-18.67-71.59-2.22c-29.77,16.45-45.98,44.12-36.22,61.79c9.77,17.68,41.82,18.67,71.59,2.22
			C511.24,351.96,527.45,324.3,517.68,306.62z"/>
		
			<linearGradient id="SVGID_00000111894556055575908600000004447019737892978082_" gradientUnits="userSpaceOnUse" x1="48.4661" y1="214.7967" x2="2190.8462" y2="214.7967">
			<stop  offset="0" style="stop-color:#0072BC"/>
			<stop  offset="0.4749" style="stop-color:#2E3192"/>
			<stop  offset="1" style="stop-color:#92278F"/>
		</linearGradient>
		<path fill="url(#SVGID_00000111894556055575908600000004447019737892978082_)" d="M797.6,200.71
			c-4.62-19.66-35.2-29.29-68.32-21.51c-33.11,7.78-56.21,30.02-51.59,49.68c4.62,19.66,35.21,29.29,68.32,21.51
			C779.12,242.61,802.22,220.37,797.6,200.71z"/>
		
			<linearGradient id="SVGID_00000075877775618252155670000012762258705989731744_" gradientUnits="userSpaceOnUse" x1="48.4661" y1="170.3508" x2="2190.8462" y2="170.3508">
			<stop  offset="0" style="stop-color:#0072BC"/>
			<stop  offset="0.4749" style="stop-color:#2E3192"/>
			<stop  offset="1" style="stop-color:#92278F"/>
		</linearGradient>
		<path fill="url(#SVGID_00000075877775618252155670000012762258705989731744_)" d="M1098.83,170.34c0-20.2-27.58-36.56-61.59-36.56
			c-34.01,0.01-61.58,16.38-61.58,36.58s27.58,36.56,61.59,36.56C1071.26,206.91,1098.83,190.54,1098.83,170.34z"/>
	</g>
	<g>
		<rect x="1581.45" y="1281.13" fill="none" width="883.78" height="79.78"/>
		<path d="M1633.28,1284.9v12.21h-30.57v12.65h27.49v11.68h-27.49v12.74h31.53v12.12h-45.23v-61.4H1633.28z"/>
		<path d="M1657.87,1346.3l-18.71-47.34h13.7l11.77,29.78l11.77-29.78h13.7l-18.71,47.34H1657.87z"/>
		<path d="M1737.53,1339.45c-5.33,5.04-11.58,7.55-18.75,7.55c-7.17,0-13.1-2.21-17.79-6.63c-4.69-4.42-7.03-10.35-7.03-17.79
			s2.38-13.35,7.16-17.74c4.77-4.39,10.41-6.59,16.91-6.59s12.02,1.96,16.56,5.89c4.54,3.92,6.81,9.31,6.81,16.16v7.03h-34.43
			c0.41,2.58,1.76,4.69,4.04,6.32c2.28,1.64,4.86,2.46,7.73,2.46c4.62,0,8.43-1.55,11.42-4.66L1737.53,1339.45z M1724.88,1311.43
			c-1.81-1.52-4.03-2.28-6.63-2.28s-4.99,0.79-7.16,2.37c-2.17,1.58-3.43,3.72-3.78,6.41h20.73
			C1727.75,1315.11,1726.7,1312.95,1724.88,1311.43z"/>
		<path d="M1764.06,1319.95v26.35h-13.17v-47.25h13.17v5.27c3.98-4.04,8.46-6.06,13.44-6.06c4.98,0,9.15,1.76,12.52,5.27
			s5.05,8.2,5.05,14.05v28.72h-13.17v-26.7c0-7.26-2.67-10.89-7.99-10.89c-2.63,0-4.93,0.95-6.89,2.85
			C1765.04,1313.46,1764.06,1316.26,1764.06,1319.95z"/>
		<path d="M1822.03,1308.53v21.17c0,1.82,0.47,3.24,1.41,4.26c0.94,1.03,2.05,1.54,3.34,1.54c2.46,0,4.54-1.11,6.23-3.34l4.92,9.22
			c-4.1,3.75-8.42,5.62-12.96,5.62c-4.54,0-8.38-1.49-11.51-4.48c-3.13-2.99-4.7-7.05-4.7-12.21v-21.78h-5.53v-9.49h5.53v-14.14
			h13.26v14.14h11.42v9.49H1822.03z"/>
		<path d="M1924.44,1307.65l-16.6,33.55h-8.17l-16.51-33.55v38.65h-13.7v-61.4h18.53l15.81,33.73l15.9-33.73h18.45v61.4h-13.7
			V1307.65z"/>
		<path d="M1992.08,1346.3h-12.38v-5.71c-3.4,4.27-7.6,6.41-12.61,6.41c-5.01,0-9.21-1.45-12.6-4.35c-3.4-2.9-5.09-6.76-5.09-11.59
			s1.76-8.45,5.27-10.85c3.51-2.4,8.31-3.6,14.4-3.6h9.84v-0.26c0-5.04-2.67-7.55-7.99-7.55c-2.28,0-4.7,0.45-7.25,1.36
			c-2.55,0.91-4.7,2.04-6.46,3.38l-5.88-8.52c6.21-4.51,13.29-6.76,21.26-6.76c5.74,0,10.42,1.44,14.05,4.3s5.45,7.41,5.45,13.61
			V1346.3z M1978.81,1328.29v-2.28h-8.26c-5.27,0-7.91,1.64-7.91,4.92c0,1.7,0.63,3,1.89,3.91c1.26,0.91,3.06,1.36,5.4,1.36
			c2.34,0,4.4-0.72,6.19-2.15C1977.92,1332.61,1978.81,1330.69,1978.81,1328.29z"/>
		<path d="M2017.28,1319.95v26.35h-13.18v-47.25h13.18v5.27c3.98-4.04,8.46-6.06,13.44-6.06s9.15,1.76,12.52,5.27
			s5.05,8.2,5.05,14.05v28.72h-13.18v-26.7c0-7.26-2.67-10.89-7.99-10.89c-2.63,0-4.93,0.95-6.9,2.85
			C2018.26,1313.46,2017.28,1316.26,2017.28,1319.95z"/>
		<path d="M2100.37,1346.3h-12.38v-5.71c-3.4,4.27-7.6,6.41-12.6,6.41c-5.01,0-9.21-1.45-12.61-4.35s-5.09-6.76-5.09-11.59
			s1.76-8.45,5.27-10.85c3.51-2.4,8.31-3.6,14.41-3.6h9.84v-0.26c0-5.04-2.66-7.55-7.99-7.55c-2.28,0-4.7,0.45-7.25,1.36
			c-2.55,0.91-4.7,2.04-6.46,3.38l-5.88-8.52c6.21-4.51,13.29-6.76,21.26-6.76c5.74,0,10.42,1.44,14.05,4.3
			c3.63,2.87,5.45,7.41,5.45,13.61V1346.3z M2087.11,1328.29v-2.28h-8.26c-5.27,0-7.9,1.64-7.9,4.92c0,1.7,0.63,3,1.89,3.91
			c1.26,0.91,3.06,1.36,5.4,1.36s4.41-0.72,6.19-2.15C2086.22,1332.61,2087.11,1330.69,2087.11,1328.29z"/>
		<path d="M2147.36,1338.3c-4.16,4.63-9.33,6.94-15.5,6.94s-11.39-2.09-15.63-6.28c-4.25-4.19-6.37-9.78-6.37-16.78
			c0-7,2.18-12.74,6.54-17.22c4.36-4.48,9.36-6.72,14.98-6.72s10.28,2.31,13.96,6.94v-6.24h13.18v41.19c0,4.22-0.73,7.96-2.2,11.24
			c-1.46,3.28-3.43,5.85-5.88,7.73c-4.86,3.86-10.6,5.8-17.22,5.8c-3.51,0-7.1-0.57-10.76-1.71s-6.87-2.77-9.62-4.88l5.09-9.92
			c4.33,3.28,8.92,4.92,13.75,4.92c4.83,0,8.65-1.2,11.46-3.6C2145.96,1347.32,2147.36,1343.52,2147.36,1338.3z M2145.52,1321.66
			c0-3.78-1.05-6.75-3.16-8.92c-2.11-2.17-4.71-3.25-7.82-3.25s-5.78,1.08-8.04,3.25c-2.25,2.17-3.38,5.12-3.38,8.87
			c0,3.75,1.1,6.78,3.29,9.09c2.2,2.31,4.88,3.47,8.04,3.47s5.8-1.14,7.9-3.43C2144.47,1328.47,2145.52,1325.44,2145.52,1321.66z"/>
		<path d="M2211.92,1339.45c-5.33,5.04-11.58,7.55-18.75,7.55c-7.17,0-13.1-2.21-17.79-6.63c-4.69-4.42-7.03-10.35-7.03-17.79
			s2.38-13.35,7.16-17.74c4.77-4.39,10.41-6.59,16.91-6.59s12.02,1.96,16.56,5.89c4.54,3.92,6.81,9.31,6.81,16.16v7.03h-34.43
			c0.41,2.58,1.76,4.69,4.04,6.32c2.28,1.64,4.86,2.46,7.73,2.46c4.62,0,8.43-1.55,11.42-4.66L2211.92,1339.45z M2199.27,1311.43
			c-1.81-1.52-4.03-2.28-6.63-2.28s-4.99,0.79-7.16,2.37c-2.17,1.58-3.43,3.72-3.78,6.41h20.73
			C2202.14,1315.11,2201.09,1312.95,2199.27,1311.43z"/>
		<path d="M2268.66,1320.82v25.47h-13.26v-25.82c0-3.75-0.57-6.5-1.71-8.26s-2.99-2.63-5.53-2.63s-4.8,0.95-6.76,2.85
			c-1.96,1.9-2.94,4.7-2.94,8.39v25.47h-13.17v-47.25h13.17v5.36c3.63-4.1,7.79-6.15,12.47-6.15c2.99,0,5.7,0.88,8.12,2.64
			s4.26,3.89,5.49,6.41c1.81-2.87,4.26-5.09,7.33-6.68s6.16-2.37,9.27-2.37c5.56,0,10.04,1.66,13.44,4.96
			c3.39,3.31,5.09,8.1,5.09,14.36v28.72h-13.26v-25.82c0-7.26-2.67-10.89-7.99-10.89c-2.63,0-4.92,0.95-6.85,2.85
			C2269.63,1314.34,2268.66,1317.14,2268.66,1320.82z"/>
		<path d="M2352.54,1339.45c-5.33,5.04-11.58,7.55-18.75,7.55c-7.17,0-13.1-2.21-17.79-6.63c-4.69-4.42-7.03-10.35-7.03-17.79
			s2.38-13.35,7.16-17.74c4.77-4.39,10.41-6.59,16.91-6.59s12.02,1.96,16.56,5.89c4.54,3.92,6.81,9.31,6.81,16.16v7.03h-34.43
			c0.41,2.58,1.76,4.69,4.04,6.32c2.28,1.64,4.86,2.46,7.73,2.46c4.62,0,8.43-1.55,11.42-4.66L2352.54,1339.45z M2339.89,1311.43
			c-1.81-1.52-4.03-2.28-6.63-2.28s-4.99,0.79-7.16,2.37c-2.17,1.58-3.43,3.72-3.78,6.41h20.73
			C2342.76,1315.11,2341.71,1312.95,2339.89,1311.43z"/>
		<path d="M2379.07,1319.95v26.35h-13.17v-47.25h13.17v5.27c3.98-4.04,8.46-6.06,13.44-6.06c4.98,0,9.15,1.76,12.52,5.27
			s5.05,8.2,5.05,14.05v28.72h-13.17v-26.7c0-7.26-2.67-10.89-7.99-10.89c-2.63,0-4.93,0.95-6.89,2.85
			C2380.05,1313.46,2379.07,1316.26,2379.07,1319.95z"/>
		<path d="M2437.04,1308.53v21.17c0,1.82,0.47,3.24,1.4,4.26c0.94,1.03,2.05,1.54,3.34,1.54c2.46,0,4.54-1.11,6.24-3.34l4.92,9.22
			c-4.1,3.75-8.42,5.62-12.96,5.62c-4.54,0-8.38-1.49-11.51-4.48c-3.13-2.99-4.7-7.05-4.7-12.21v-21.78h-5.53v-9.49h5.53v-14.14
			h13.26v14.14h11.42v9.49H2437.04z"/>
	</g>
</g>
</svg>
