<?xml version="1.0" encoding="utf-8"?>
<!-- Generator: Adobe Illustrator 26.0.0, SVG Export Plug-In . SVG Version: 6.00 Build 0)  -->
<svg version="1.1" id="Layer_1" xmlns="http://www.w3.org/2000/svg" xmlns:xlink="http://www.w3.org/1999/xlink" x="0px" y="0px"
	 viewBox="0 0 2559.43 1402.29" style="enable-background:new 0 0 2559.43 1402.29;" xml:space="preserve">
<style type="text/css">
	.st0{fill:none;stroke:#000000;stroke-width:9;stroke-miterlimit:10;}
	.st1{display:none;}
	.st2{fill:url(#SVGID_1_);}
	.st3{fill:none;stroke:#000000;stroke-width:14.3071;stroke-miterlimit:10;}
	.st4{fill:none;}
	.st5{fill:url(#SVGID_00000168804213378934581350000012183458214283769998_);}
	.st6{fill:url(#SVGID_00000061441201864388363290000012017165560087625394_);}
	.st7{fill:url(#SVGID_00000128474385320248987570000005170739765896645274_);}
	.st8{fill:url(#SVGID_00000107569647010893090000000004275170200388891271_);}
	.st9{fill:url(#SVGID_00000054961199313271613290000010336785488440571556_);}
	.st10{fill:#FFCB05;}
	.st11{fill:url(#SVGID_00000173866801535968863810000004246338896104584093_);}
	.st12{fill:url(#SVGID_00000067219928245715242030000005374382950650623413_);}
	.st13{fill:url(#SVGID_00000112617992373332523380000004520962438166164914_);}
	.st14{fill:url(#SVGID_00000151512504428310574990000004284157041865647275_);}
	.st15{fill:url(#SVGID_00000033353158881902081640000017084072432601035192_);}
	.st16{fill:url(#SVGID_00000167388361162166683860000005025281624495410836_);}
	.st17{fill:url(#SVGID_00000092453466132320971650000012998347787289255850_);}
	.st18{fill:url(#SVGID_00000088098513198649469370000017330707062552677303_);}
	.st19{fill:url(#SVGID_00000081625847435379657580000016068011840564855974_);}
	.st20{fill:url(#SVGID_00000147219551361071532770000015172558579174261403_);}
	.st21{fill:url(#SVGID_00000129895846959772107510000010824018392624801700_);}
	.st22{fill:url(#SVGID_00000057835950574035380730000010516323570043760018_);}
	.st23{fill:url(#SVGID_00000054950418041370593030000000046514491035557820_);}
	.st24{fill:url(#SVGID_00000061441558048888983450000005124276922471579027_);}
	.st25{fill:#F47634;}
	.st26{fill:url(#SVGID_00000044175209924757921830000006601704588991419544_);}
	.st27{fill:url(#SVGID_00000170239578728448027200000017518734244565319311_);}
	.st28{fill:url(#SVGID_00000052784197122700200760000004443112047466057394_);}
	.st29{fill:url(#SVGID_00000116939144773792625800000018369769548879302575_);}
	.st30{fill:url(#SVGID_00000031202691249905747040000015447525723443022755_);}
	.st31{fill:url(#SVGID_00000126305746789073305490000006687404347753546136_);}
	.st32{fill:url(#SVGID_00000117662025666371032900000005206315001082727580_);}
	.st33{fill:url(#SVGID_00000118388973265710411090000016001537095794305412_);}
	.st34{fill:url(#SVGID_00000109726501331651679510000013123487532481529762_);}
	.st35{fill:#4E2D87;}
	.st36{fill:#F26722;}
	.st37{fill:url(#SVGID_00000083064273329640786150000014171720844742896810_);}
	.st38{fill:url(#SVGID_00000101810692966769057950000003978662265563405226_);}
	.st39{fill:url(#SVGID_00000088115206710605121110000016430699024429089716_);}
	.st40{fill:url(#SVGID_00000045588556615613332880000000150114177759488152_);}
	.st41{fill:url(#SVGID_00000051377333406735898340000008796490805605568701_);}
	.st42{fill:#F8BD43;}
	.st43{fill:url(#SVGID_00000109743839818156813790000002659998651441076415_);}
	.st44{fill:url(#SVGID_00000083783401473217418640000015966779128191324586_);}
	.st45{fill:url(#SVGID_00000173144894922884853190000014939332615048460217_);}
	.st46{fill:url(#SVGID_00000129189914905522695400000004764768815839172031_);}
	.st47{fill:url(#SVGID_00000072277179619145598730000007367499287788460691_);}
	.st48{fill:url(#SVGID_00000026162127948101257980000011661974707006998416_);}
	.st49{fill:url(#SVGID_00000000943194054794069420000012957788998154610076_);}
	.st50{fill:url(#SVGID_00000123429100332883376990000001155743451537511594_);}
	.st51{fill:url(#SVGID_00000064321329173172401040000005073196528645133193_);}
	.st52{fill:#ED1846;}
	.st53{fill:#2E3192;}
	.st54{fill:url(#SVGID_00000129184818464203968920000003637110087884237481_);}
	.st55{fill:url(#SVGID_00000085946787645235112000000005274977570025015968_);}
	.st56{fill:url(#SVGID_00000092437656245474436120000000001051127357769144_);}
	.st57{fill:url(#SVGID_00000142174595815273862440000015410401677003709852_);}
	.st58{fill:url(#SVGID_00000167396795071557842960000005667574999586242948_);}
	.st59{fill:#EF404A;}
	.st60{fill:url(#SVGID_00000137832167506816732960000011415092254709777079_);}
	.st61{fill:url(#SVGID_00000054983982785187053640000017330318717298523299_);}
	.st62{fill:url(#SVGID_00000088834370590523763250000009263185062684596372_);}
	.st63{fill:url(#SVGID_00000084517000644683831910000005789398752683208372_);}
	.st64{fill:url(#SVGID_00000107576187106812370280000008587903409659009957_);}
	.st65{fill:url(#SVGID_00000134936813805125641150000003441645787217277368_);}
	.st66{fill:url(#SVGID_00000039828512466161697130000001007883834626861758_);}
	.st67{fill:url(#SVGID_00000008871889519803308500000001338364327089982085_);}
	.st68{fill:url(#SVGID_00000081639680432444939070000009638408979027093174_);}
	.st69{fill:url(#SVGID_00000129905409021960600960000010156380172258037395_);}
	.st70{fill:url(#SVGID_00000165211105677220589740000009904781332974615971_);}
	.st71{fill:url(#SVGID_00000055669397006647495450000006253524558446221706_);}
	.st72{fill:url(#SVGID_00000169540369263031949180000007892770981834438589_);}
	.st73{fill:url(#SVGID_00000073721014088500459250000001237147486159165366_);}
	.st74{fill:url(#SVGID_00000163756848572989391550000001533118132560655521_);}
	.st75{fill:url(#SVGID_00000108285039546511730560000016480123442110023088_);}
	.st76{fill:url(#SVGID_00000049210031408084922110000016927717947970258310_);}
	.st77{fill:url(#SVGID_00000137842389802867462900000017854311286848043423_);}
	.st78{fill:url(#SVGID_00000071531146355700283280000003147469742214016690_);}
	.st79{fill:url(#SVGID_00000073716523229393523850000000103393611879341721_);}
	.st80{fill:url(#SVGID_00000030462686179228396450000002388332118692299442_);}
	.st81{fill:url(#SVGID_00000179641056519305028670000011739756530645962427_);}
	.st82{fill:url(#SVGID_00000075876850130303814260000016957554235202580128_);}
	.st83{fill:url(#SVGID_00000061461804192398839890000013159685444741210508_);}
	.st84{fill:url(#SVGID_00000134226709221562545070000006749414027654815368_);}
	.st85{fill:url(#SVGID_00000046331383547706729230000001613418883447847857_);}
	.st86{fill:url(#SVGID_00000049224073059884615130000005864030876889855927_);}
	.st87{fill:url(#SVGID_00000124119836802693164690000015616987443173227452_);}
	.st88{fill:url(#SVGID_00000018210321677001424000000000461874665071358861_);}
	.st89{fill:url(#SVGID_00000128476278384277530130000001208514757090789798_);}
	.st90{fill:#F6871F;}
	.st91{fill:url(#SVGID_00000152980670632985642130000013841067819059861914_);}
	.st92{fill:url(#SVGID_00000075140514122810048260000007726127179245332893_);}
	.st93{fill:url(#SVGID_00000074401579542048481810000010462024094588684948_);}
	.st94{fill:url(#SVGID_00000147190361432615055870000008636935011192054146_);}
	.st95{fill:url(#SVGID_00000031166629966357740790000012857027444953258682_);}
	.st96{fill:url(#SVGID_00000103237989072575895790000007768211086361606784_);}
	.st97{fill:url(#SVGID_00000059281287139347431560000018201972680127919776_);}
	.st98{fill:url(#SVGID_00000083791464853454577460000000810975371597619860_);}
	.st99{fill:url(#SVGID_00000040556767339743922050000017308489461839300790_);}
	.st100{font-family:'Montserrat-Bold';}
	.st101{font-size:87.8345px;}
	.st102{fill:url(#SVGID_00000075876940746851062880000010561628902936409728_);}
	.st103{fill:url(#SVGID_00000160151735682925107770000001434351738683795387_);}
	.st104{fill:url(#SVGID_00000130619359365069032370000012014464516467136701_);}
	.st105{fill:url(#SVGID_00000066489883778399432090000002613991205000247436_);}
	.st106{fill:url(#SVGID_00000049903336400036899680000011297660805395422122_);}
	.st107{fill:url(#SVGID_00000036937061758157905350000012642603487360878254_);}
	.st108{fill:url(#SVGID_00000036234772320744040180000015228693556894033593_);}
	.st109{fill:url(#SVGID_00000133510456229989089930000014251244862229835917_);}
	.st110{fill:url(#SVGID_00000090973195207901264350000008472949062789587887_);}
	.st111{fill:url(#SVGID_00000103943105492903418180000016537003927965109926_);}
	.st112{fill:url(#SVGID_00000162320621657522969540000013329723784456123313_);}
	.st113{fill:url(#SVGID_00000119831753106816363060000018179203028433610418_);}
	.st114{fill:url(#SVGID_00000084505399957410602720000012587952040973227402_);}
	.st115{fill:url(#SVGID_00000065070987260584554820000005733381478723142828_);}
	.st116{fill:url(#SVGID_00000033329242405747126050000016768643026301373077_);}
	.st117{fill:url(#SVGID_00000003086061027414345100000012282666070458006937_);}
	.st118{fill:url(#SVGID_00000064318600741402908580000001037420181686319281_);}
	.st119{fill:url(#SVGID_00000027568768076666116930000016082649289356975236_);}
	.st120{fill:url(#SVGID_00000114048948105428912840000007061866643399335305_);}
	.st121{fill:#F9A01B;}
	.st122{fill:url(#SVGID_00000060004396817004655620000006268422957332167313_);}
	.st123{fill:url(#SVGID_00000176005221103037659770000015979747705731007377_);}
	.st124{fill:url(#SVGID_00000011718344460679739570000004484314686259455661_);}
	.st125{fill:url(#SVGID_00000083804002655264782100000013011025713483655065_);}
	.st126{fill:url(#SVGID_00000024694583810295708160000006963600259852787646_);}
	.st127{fill:url(#SVGID_00000177444460770985212570000016818436231713414292_);}
	.st128{fill:url(#SVGID_00000170992723278879163530000013443123007891720850_);}
	.st129{fill:url(#SVGID_00000163779389135981957410000013504802716841089414_);}
	.st130{fill:url(#SVGID_00000019659696150136845590000009930536826004586368_);}
	.st131{fill:url(#SVGID_00000150100842749207251760000004263261443815380415_);}
	.st132{fill:#587BBD;}
	.st133{fill:url(#SVGID_00000138561790319191056310000017740687047121708984_);}
	.st134{fill:#3EC0C2;}
	.st135{fill:#F0554D;}
	.st136{fill:#432E80;}
	.st137{fill:url(#SVGID_00000129199411765586905290000009169743022749742490_);}
	.st138{fill:#BC1B8D;}
	.st139{fill:#2A388F;}
	.st140{fill:url(#SVGID_00000022538808443205409040000002353880799571958943_);}
	.st141{fill:#96577F;}
	.st142{fill:#0072BC;}
	.st143{fill:#92278F;}
	.st144{fill:url(#SVGID_00000090983640099170425320000001331220631625201289_);}
	.st145{fill:#FFFFFF;}
	.st146{opacity:0.3;fill:url(#SVGID_00000042001281841070751710000013683858848728745602_);}
	.st147{fill:url(#SVGID_00000102532838341980329310000018080744475937303999_);}
	.st148{fill:url(#SVGID_00000090294749237302416680000005777947284339418294_);}
	.st149{fill:url(#SVGID_00000107573578967917751240000007975649398537659027_);}
	.st150{fill:url(#SVGID_00000163787102186992662880000016502918281734985093_);}
	.st151{fill:url(#SVGID_00000132086492386908972250000007647382660886515091_);}
	.st152{fill:url(#SVGID_00000045610891861608142210000009909202288888125858_);}
	.st153{fill:url(#SVGID_00000052068499747128117510000000530744490843704484_);}
	.st154{fill:url(#SVGID_00000053542663893208477310000001407372353603435165_);}
	.st155{fill:url(#SVGID_00000084524796614972946430000010616658798477289858_);}
	.st156{fill:url(#SVGID_00000069370156318343566960000017754008401261876155_);}
	.st157{fill:url(#SVGID_00000007391604218043073460000012847848800367377592_);}
	.st158{fill:url(#SVGID_00000116953470299079838880000007733052892119615660_);}
	.st159{fill:url(#SVGID_00000072281492890016803730000001334828059996428471_);}
	.st160{fill:url(#SVGID_00000079456386150600660990000002939166246336780459_);}
</style>
<g>
	<linearGradient id="SVGID_1_" gradientUnits="userSpaceOnUse" x1="-23.391" y1="1001.6127" x2="2118.989" y2="1001.6127">
		<stop  offset="0" style="stop-color:#0072BC"/>
		<stop  offset="0.4749" style="stop-color:#2E3192"/>
		<stop  offset="1" style="stop-color:#92278F"/>
	</linearGradient>
	<path class="st2" d="M1186.81,993.79c-66.38,135.62-122.67,205.32-168.9,209.06c-21.64,1.49-38.22-5.64-49.77-21.42
		c-11.57-15.77-17.34-34.94-17.34-57.49c0-19.54,3.72-41.7,11.19-66.5c-58.16,96.95-110.37,145.41-156.6,145.41
		c-21.64,0-38.03-10.87-49.22-32.61c-8.95-17.25-13.42-37.87-13.42-61.87c0-71.24,31.32-144.71,93.96-220.46
		c20.13-24.75,46.23-45.55,78.3-62.43c32.05-16.87,63.37-25.31,93.96-25.31c36.53,0,65.61,11.93,87.24,35.79
		c5.21,5.98,7.83,11.94,7.83,17.9c0,12.69-6.71,17.53-20.13,14.54c-7.46-26.85-24.61-40.27-51.45-40.27
		c-31.32,0-68.23,22.15-110.73,66.43c-31.32,32.28-58.55,67.94-81.65,106.96c-31.32,52.54-46.98,96.46-46.98,131.72
		c0,25.52,9.31,38.27,27.96,38.27c45.48,0,104.02-68.88,175.61-206.63c14.91-28.45,26.09-46.79,33.55-55.04
		c11.92-12.72,26.09-18.33,42.51-16.85c3.72,0,11.18,1.12,22.37,3.36c11.18,2.23,19.38,2.62,24.61,1.12
		c-17.16,17.16-37.67,50.33-61.52,99.55c-22.37,46.24-36.54,82.77-42.5,109.62c-2.99,14.17-4.48,26.84-4.48,38.03
		c0,19.4,5.21,29.08,15.66,29.08c34.29,1.51,82.39-61.48,144.29-188.96c3.72-7.5,8.2-11.25,13.42-11.25c3.72,0,5.59,2.25,5.59,6.74
		C1190.17,984.81,1189.05,989.3,1186.81,993.79z"/>
	
		<linearGradient id="SVGID_00000051348930411032675780000015977855942770582147_" gradientUnits="userSpaceOnUse" x1="-23.391" y1="850.5131" x2="2118.989" y2="850.5131">
		<stop  offset="0" style="stop-color:#0072BC"/>
		<stop  offset="0.4749" style="stop-color:#2E3192"/>
		<stop  offset="1" style="stop-color:#92278F"/>
	</linearGradient>
	<path style="fill:url(#SVGID_00000051348930411032675780000015977855942770582147_);" d="M1461.96,648.55
		c-64.88,143.66-141.32,255.88-229.3,336.68c-7.46,17.97-15.29,42.64-23.49,74.07c-5.23,19.46-7.83,38.16-7.83,56.1
		c0,41.91,14.16,62.84,42.5,62.84c26.1,0,52.94-16.95,80.54-50.89c4.47-5.28,21.25-33.54,50.33-84.81
		c26.09-45.98,41.75-68.98,46.98-68.98c2.97,0,4.48,2.25,4.48,6.74c0,2.26-1.12,5.99-3.36,11.24
		c-29.83,65.19-53.32,109.41-70.47,132.63c-38.78,52.46-82.4,78.68-130.87,78.68c-52.2,0-78.3-27.24-78.3-81.77
		c0-23.91,9.68-70.21,29.08-138.93c38.76-137.43,95.44-269.25,170.02-395.47c35.04-59,70.83-88.5,107.38-88.5
		c26.09,0,39.15,17.22,39.15,51.63C1488.81,575.99,1479.85,608.91,1461.96,648.55z M1445.18,631.28
		c11.92-28.33,17.9-52.19,17.9-71.58c0-10.43-2.62-15.66-7.83-15.66c-7.46,0-19.76,12.3-36.91,36.91
		c-49.97,71.59-108.88,193.89-176.73,366.88C1322.14,866.56,1389.99,761.03,1445.18,631.28z"/>
	
		<linearGradient id="SVGID_00000013890086329615429330000010097894500224115597_" gradientUnits="userSpaceOnUse" x1="-23.391" y1="1002.076" x2="2118.989" y2="1002.076">
		<stop  offset="0" style="stop-color:#0072BC"/>
		<stop  offset="0.4749" style="stop-color:#2E3192"/>
		<stop  offset="1" style="stop-color:#92278F"/>
	</linearGradient>
	<path style="fill:url(#SVGID_00000013890086329615429330000010097894500224115597_);" d="M1700.19,990.25
		c-31.31,67.53-56.67,113.92-76.06,139.15c-38.03,48.97-83.89,73.45-137.58,73.45c-31.32,0-56.87-10.03-76.62-30.11
		c-19.77-20.06-30.03-45.72-30.76-76.97c-0.75-69.14,27.96-138.68,86.12-208.59c47.71-57.26,96.93-85.88,147.65-85.88
		c41.76,0,62.64,17.79,62.64,53.37c0,40.77-26.99,81.55-80.92,122.31c-15,11.13-37.28,22.07-66.89,32.82
		c-29.6,10.74-53.39,16.11-71.35,16.11c-9.75,24.47-14.61,51.15-14.61,80.06c0,48.19,17.6,72.27,52.8,72.27
		c68.15,0,129.93-63.06,185.35-189.2c4.49-10.31,10.49-15.48,17.99-15.48c3.74,0,5.61,2.23,5.61,6.67
		C1703.55,981.74,1702.43,985.07,1700.19,990.25z M1645.39,850.52c0-16.4-5.98-24.61-17.9-24.61c-20.89,0-52.57,25.73-95.07,77.18
		c-22.37,27.6-44.74,62.64-67.11,105.14c38.76,0,78.47-16.78,119.13-50.33C1625.06,924.34,1645.39,888.55,1645.39,850.52z"/>
	
		<linearGradient id="SVGID_00000005265967544059639670000004707793284289597061_" gradientUnits="userSpaceOnUse" x1="-23.391" y1="863.3791" x2="2118.989" y2="863.3791">
		<stop  offset="0" style="stop-color:#0072BC"/>
		<stop  offset="0.4749" style="stop-color:#2E3192"/>
		<stop  offset="1" style="stop-color:#92278F"/>
	</linearGradient>
	<path style="fill:url(#SVGID_00000005265967544059639670000004707793284289597061_);" d="M1958.57,774.46
		c5.21,0,7.83,3.35,7.83,10.06c0,9.7-3.35,14.54-10.06,14.54h-64.88c-40.26,69.35-89.86,130.87-148.76,184.56
		c-5.98,15.66-14.54,53.69-25.73,114.09c-2.24,11.94-3.36,20.88-3.36,26.85c0,29.83,12.3,44.74,36.91,44.74
		c43.24,0,95.07-61.52,155.48-184.56c3.72-8.2,8.2-12.3,13.42-12.3c2.97,0,4.47,2.23,4.47,6.71c0,3.74-1.12,7.83-3.35,12.3
		c-41.02,87.99-77.18,146.91-108.5,176.73c-21.64,20.88-46.98,31.32-76.06,31.32c-23.12,0-42.14-7.64-57.04-22.93
		c-14.93-15.28-22.37-37.84-22.37-67.67c0-64.88,29.45-168.15,88.36-309.83h-58.16c-5.22,0-7.83-3.72-7.83-11.18
		c0-8.95,3.35-13.42,10.06-13.42h67.11c25.34-55.18,52.57-108.11,81.65-158.83c33.55-58.9,68.59-88.36,105.14-88.36
		c25.34,0,38.03,16.78,38.03,50.33c0,38.78-25.36,104.41-76.06,196.86H1958.57z M1865.72,799.06h-52.57
		c-11.19,26.85-31.32,76.45-60.4,148.77C1792.27,908.31,1829.93,858.73,1865.72,799.06z M1936.19,660.37
		c11.92-27.58,17.9-51.82,17.9-72.71c0-11.92-2.62-17.9-7.83-17.9c-8.95,0-23.12,13.81-42.51,41.39
		c-12.69,17.9-39.15,72.34-79.41,163.3h55.93C1898.9,740.9,1917.55,702.87,1936.19,660.37z"/>
	
		<linearGradient id="SVGID_00000124850757074198463080000008176312041859586984_" gradientUnits="userSpaceOnUse" x1="-23.391" y1="863.3791" x2="2118.989" y2="863.3791">
		<stop  offset="0" style="stop-color:#0072BC"/>
		<stop  offset="0.4749" style="stop-color:#2E3192"/>
		<stop  offset="1" style="stop-color:#92278F"/>
	</linearGradient>
	<path style="fill:url(#SVGID_00000124850757074198463080000008176312041859586984_);" d="M2178.9,774.46
		c5.21,0,7.83,3.35,7.83,10.06c0,9.7-3.35,14.54-10.06,14.54h-64.88c-40.26,69.35-89.86,130.87-148.76,184.56
		c-5.98,15.66-14.54,53.69-25.73,114.09c-2.24,11.94-3.36,20.88-3.36,26.85c0,29.83,12.3,44.74,36.91,44.74
		c43.24,0,95.07-61.52,155.48-184.56c3.72-8.2,8.2-12.3,13.42-12.3c2.97,0,4.47,2.23,4.47,6.71c0,3.74-1.12,7.83-3.35,12.3
		c-41.02,87.99-77.18,146.91-108.5,176.73c-21.64,20.88-46.98,31.32-76.06,31.32c-23.12,0-42.14-7.64-57.05-22.93
		c-14.93-15.28-22.37-37.84-22.37-67.67c0-64.88,29.45-168.15,88.36-309.83h-58.16c-5.22,0-7.83-3.72-7.83-11.18
		c0-8.95,3.35-13.42,10.06-13.42h67.11c25.34-55.18,52.57-108.11,81.65-158.83c33.55-58.9,68.59-88.36,105.14-88.36
		c25.34,0,38.03,16.78,38.03,50.33c0,38.78-25.36,104.41-76.06,196.86H2178.9z M2086.06,799.06h-52.57
		c-11.19,26.85-31.32,76.45-60.4,148.77C2012.61,908.31,2050.27,858.73,2086.06,799.06z M2156.53,660.37
		c11.92-27.58,17.9-51.82,17.9-72.71c0-11.92-2.62-17.9-7.83-17.9c-8.95,0-23.12,13.81-42.51,41.39
		c-12.69,17.9-39.15,72.34-79.41,163.3h55.93C2119.23,740.9,2137.89,702.87,2156.53,660.37z"/>
	<path class="st90" d="M2513.34,990.33c-25.36,58.91-46.25,99.93-62.64,123.04c-35.06,50.71-74.21,76.06-117.45,76.06
		c-25.36,0-46.61-9.32-63.76-27.97c-34.31,26.11-66.75,38.76-97.31,38.03c-52.2-1.48-78.29-34.76-78.29-99.83
		c0-32.89,7.83-67.67,23.49-104.32c20.13-46.37,48.09-87.49,83.89-123.39c43.24-44.11,86.12-65.8,128.63-65.07
		c52.19,1.5,78.29,34.41,78.29,98.73c0,84.54-39.15,163.83-117.44,237.86c9.68,17.21,27.58,25.81,53.69,25.81
		c33.56,0,67.48-27.22,101.79-81.65c11.19-17.9,29.08-54.06,53.69-108.5c2.23-3.72,4.84-5.59,7.83-5.59c5.21,0,7.83,2.98,7.83,8.95
		C2515.57,984.01,2514.82,986.61,2513.34,990.33z M2341.27,841.57c-27.45,0-56.76,18.77-87.92,56.31
		c-23,27.02-42.3,57.8-57.87,92.33c-25.97,56.31-38.95,101.37-38.95,135.14c0,33.03,12.53,49.55,37.61,49.55
		c19.17,0,40.19-9.68,63.06-29.08c-11.94-18.63-17.9-36.91-17.9-54.81c0.73-32.05,13.79-48.09,39.15-48.09
		c22.37,0,33.55,11.18,33.55,33.55c0,4.48,0,8.58,0,12.3c12.27-17.3,23.45-37.61,33.57-60.96c23.11-51.91,34.66-95.55,34.66-130.92
		C2380.23,860,2367.24,841.57,2341.27,841.57z"/>
	<g>
		
			<linearGradient id="SVGID_00000183237661538536815700000005810269977207283903_" gradientUnits="userSpaceOnUse" x1="-23.391" y1="387.1397" x2="1731.368" y2="387.1397">
			<stop  offset="0" style="stop-color:#0072BC"/>
			<stop  offset="0.4749" style="stop-color:#2E3192"/>
			<stop  offset="1" style="stop-color:#92278F"/>
		</linearGradient>
		<path style="fill:url(#SVGID_00000183237661538536815700000005810269977207283903_);" d="M891.86,387.08l0.11,0.02
			c-0.07,0.03-0.15,0.06-0.22,0.09C891.79,387.16,891.83,387.12,891.86,387.08z"/>
		
			<linearGradient id="SVGID_00000099649228253140163680000010389861414487975598_" gradientUnits="userSpaceOnUse" x1="-23.391" y1="387.1397" x2="1731.368" y2="387.1397">
			<stop  offset="0" style="stop-color:#0072BC"/>
			<stop  offset="0.4749" style="stop-color:#2E3192"/>
			<stop  offset="1" style="stop-color:#92278F"/>
		</linearGradient>
		<path style="fill:url(#SVGID_00000099649228253140163680000010389861414487975598_);" d="M891.86,387.08
			c-0.04,0.04-0.07,0.08-0.11,0.12c0.07-0.03,0.15-0.06,0.22-0.09L891.86,387.08z"/>
		
			<linearGradient id="SVGID_00000024692838444678569910000016037547871697861790_" gradientUnits="userSpaceOnUse" x1="-23.391" y1="376.469" x2="2118.989" y2="376.469">
			<stop  offset="0" style="stop-color:#0072BC"/>
			<stop  offset="0.4749" style="stop-color:#2E3192"/>
			<stop  offset="1" style="stop-color:#92278F"/>
		</linearGradient>
		<path style="fill:url(#SVGID_00000024692838444678569910000016037547871697861790_);" d="M706.5,376.96
			c0.35-0.33,0.71-0.66,1.06-0.99c-0.1,0.02-0.18,0.01-0.28,0.01C707.03,376.32,706.75,376.63,706.5,376.96z"/>
		
			<linearGradient id="SVGID_00000013177097338351275010000017560095323381255345_" gradientUnits="userSpaceOnUse" x1="-23.391" y1="647.8732" x2="2118.989" y2="647.8732">
			<stop  offset="0" style="stop-color:#0072BC"/>
			<stop  offset="0.4749" style="stop-color:#2E3192"/>
			<stop  offset="1" style="stop-color:#92278F"/>
		</linearGradient>
		<path style="fill:url(#SVGID_00000013177097338351275010000017560095323381255345_);" d="M1503.59,208.9
			c-13.77-32.9-44.91-59.42-77.85-78.76c-84.07-49.38-185.94-67.2-286.01-72.39C923.18,46.51,705.18,90.18,502.6,164.83
			c-133.32,49.13-263.55,113.44-362.11,210.16C92.38,422.21,51.65,478.54,38.82,541.95s6.7,134.53,61.06,174.12
			c103.66,75.49,252.07,14.5,349.03-43.34c56.74-33.85,110.5-74.6,145.85-127.73c7.53-11.31,14.39-24.57,10.79-37.29
			c-43.62,37.13-74.37,84.06-119.6,119.84c-47.02,37.21-100.9,67.59-160.48,83.59c-39.06,10.49-81.32,14.6-119.82,3.41
			c-44.2-12.85-79.6-45.18-100.39-83.32c-17.09-31.35-25.18-67.36-19.99-102.4c6.52-44.04,33.2-83.78,64.73-117.69
			c68.59-73.79,160.78-125.32,254.29-169.82c149.38-71.1,308.09-128.04,473.57-151.77c104.86-15.04,212.33-16.3,316.61,0.08
			c84.97,13.35,219.81,36.83,264.58,114.24c21.84,37.76,15.85,85.36-4.21,124.5c-53.74,104.83-176.56,194.83-278.51,257.78
			c-55.04,33.99-113.92,62.62-175.29,85.34c-31.32,11.6-63.29,21.65-95.73,30.1c-15.89,4.14-31.89,7.88-47.98,11.24
			c-15.12,3.15-34.37,9.52-49.69,8.49c3.74-24.47,17.87-51.09,25.95-75.05c66.66,4.08,153.33-7.65,201.36-98.64
			c4.68-8.86,17.47-46.76,2.46-67.76c-40.09-56.07-305.84-21.11-369.14,110.97c-3.87,8.07-39.68,85.62,3.87,132.31
			c22.64,24.28,56.64,29.38,73.08,30.71c-60.91,177.72-121.42,430.02-330.78,454.68c-132.52-3.52-86.78-201.51,41.06-147.47
			c17.31,6.39,18.19-9.86,1.41-13.39c-80.84-28.84-185.05,8.66-175.13,99.07c7.69,68.67,71.36,99.47,150.12,91.85
			c125.38-20.13,205.82-105.96,256.21-208.71c25.21-51.41,43.89-105.2,62.75-158.73c9.1-25.84,18.11-51.72,28.06-77.31
			c3.51-9.02,6.84-26.67,15.05-32.78c11.23-8.36,45.31-9.24,59.77-12.73c206.9-49.85,398.28-156.55,542.36-303.42
			c42.41-43.23,81.39-90.77,102.97-145.42c8.24-20.86,13.89-43.1,11.32-65.04C1509.34,225.57,1507,217.04,1503.59,208.9z
			 M989.34,505.31c22.01,36.16-72.74,133.85-147.13,113.95c16.32-38.76,32.62-77.53,48.94-116.31
			C957.51,488.28,981.99,494.02,989.34,505.31z M756.2,721.9c0.32-0.02,0.62-0.03,0.92-0.04c-0.31,0.07-0.64,0.12-0.97,0.19
			C756.16,721.99,756.19,721.94,756.2,721.9c-10.4,0.14-45.52-0.57-67-23.54c-34.64-37.07-1.97-98.05,2.26-105.97
			c39.35-73.46,141.66-84.42,152.87-85.47c-17.55,36.95-34.9,76.21-51.64,117.71C779.23,658,767.11,690.48,756.2,721.9z"/>
		
			<linearGradient id="SVGID_00000152982016312700379730000015476415298735763632_" gradientUnits="userSpaceOnUse" x1="-23.391" y1="674.98" x2="2118.989" y2="674.98">
			<stop  offset="0" style="stop-color:#0072BC"/>
			<stop  offset="0.4749" style="stop-color:#2E3192"/>
			<stop  offset="1" style="stop-color:#92278F"/>
		</linearGradient>
		<path style="fill:url(#SVGID_00000152982016312700379730000015476415298735763632_);" d="M763.91,674.91
			c-0.01,0.04-0.04,0.1-0.05,0.16c0.33-0.07,0.66-0.12,0.97-0.19C764.54,674.89,764.23,674.9,763.91,674.91z"/>
		
			<linearGradient id="SVGID_00000127762185126433205950000010680953555038679451_" gradientUnits="userSpaceOnUse" x1="-23.391" y1="584.2046" x2="2118.989" y2="584.2046">
			<stop  offset="0" style="stop-color:#0072BC"/>
			<stop  offset="0.4749" style="stop-color:#2E3192"/>
			<stop  offset="1" style="stop-color:#92278F"/>
		</linearGradient>
		<path style="fill:url(#SVGID_00000127762185126433205950000010680953555038679451_);" d="M842.26,592.15
			c1.66-5.54,3.43-11.42,5.3-17.58c-10.76,3.48-22.32,6.26-34.56,8.16c2.81,1.63,13.2,7.46,28.75,11.11c0.13-0.44,0.27-0.9,0.4-1.33
			C842.18,592.43,842.22,592.3,842.26,592.15z"/>
	</g>
	<g>
		
			<linearGradient id="SVGID_00000176750414851212358740000015486646049048521653_" gradientUnits="userSpaceOnUse" x1="-23.391" y1="328.9785" x2="2118.989" y2="328.9785">
			<stop  offset="0" style="stop-color:#0072BC"/>
			<stop  offset="0.4749" style="stop-color:#2E3192"/>
			<stop  offset="1" style="stop-color:#92278F"/>
		</linearGradient>
		<path style="fill:url(#SVGID_00000176750414851212358740000015486646049048521653_);" d="M445.83,299.19
			c-9.77-17.68-41.82-18.67-71.59-2.22c-29.77,16.45-45.98,44.12-36.22,61.79c9.77,17.68,41.82,18.67,71.59,2.22
			C439.38,344.53,455.59,316.87,445.83,299.19z"/>
		
			<linearGradient id="SVGID_00000090261379540610231890000005313687690948263070_" gradientUnits="userSpaceOnUse" x1="-23.391" y1="207.3681" x2="2118.989" y2="207.3681">
			<stop  offset="0" style="stop-color:#0072BC"/>
			<stop  offset="0.4749" style="stop-color:#2E3192"/>
			<stop  offset="1" style="stop-color:#92278F"/>
		</linearGradient>
		<path style="fill:url(#SVGID_00000090261379540610231890000005313687690948263070_);" d="M725.74,193.28
			c-4.62-19.66-35.2-29.29-68.32-21.51s-56.21,30.02-51.59,49.68s35.2,29.29,68.32,21.51C707.27,235.19,730.36,212.94,725.74,193.28
			z"/>
		
			<linearGradient id="SVGID_00000005984192306064251930000002766291997534549635_" gradientUnits="userSpaceOnUse" x1="-23.391" y1="162.9223" x2="2118.989" y2="162.9223">
			<stop  offset="0" style="stop-color:#0072BC"/>
			<stop  offset="0.4749" style="stop-color:#2E3192"/>
			<stop  offset="1" style="stop-color:#92278F"/>
		</linearGradient>
		<path style="fill:url(#SVGID_00000005984192306064251930000002766291997534549635_);" d="M1026.97,162.91
			c0-20.2-27.58-36.56-61.59-36.56c-34.01,0.01-61.58,16.38-61.58,36.58s27.58,36.56,61.59,36.56S1026.98,183.11,1026.97,162.91z"/>
	</g>
	<rect x="1509.6" y="1273.7" class="st4" width="883.78" height="79.78"/>
	<text transform="matrix(1 0 0 1 1509.5953 1338.868)" class="st100 st101">Event Management</text>
</g>
</svg>
